<mxfile host="app.diagrams.net" agent="Mozilla/5.0 (Windows NT 10.0; Win64; x64) AppleWebKit/537.36 (KHTML, like Gecko) Chrome/133.0.0.0 Safari/537.36 Edg/133.0.0.0" version="26.0.16">
  <diagram name="第 1 页" id="l5uvdBdpOHz8UcNvLkng">
    <mxGraphModel dx="1426" dy="781" grid="1" gridSize="10" guides="1" tooltips="1" connect="1" arrows="1" fold="1" page="1" pageScale="1" pageWidth="827" pageHeight="1169" math="0" shadow="0">
      <root>
        <mxCell id="0" />
        <mxCell id="1" parent="0" />
        <mxCell id="JcOVOQEbRMuo3JMYJcRL-28" value="" style="group" parent="1" vertex="1" connectable="0">
          <mxGeometry x="490" y="20" width="100" height="210" as="geometry" />
        </mxCell>
        <mxCell id="JcOVOQEbRMuo3JMYJcRL-3" value="" style="ellipse;whiteSpace=wrap;html=1;aspect=fixed;fillColor=#006600;" parent="JcOVOQEbRMuo3JMYJcRL-28" vertex="1">
          <mxGeometry x="60" y="60" width="30" height="30" as="geometry" />
        </mxCell>
        <mxCell id="JcOVOQEbRMuo3JMYJcRL-6" value="" style="ellipse;whiteSpace=wrap;html=1;aspect=fixed;fillColor=#006600;" parent="JcOVOQEbRMuo3JMYJcRL-28" vertex="1">
          <mxGeometry x="10" y="60" width="30" height="30" as="geometry" />
        </mxCell>
        <mxCell id="JcOVOQEbRMuo3JMYJcRL-7" value="" style="ellipse;whiteSpace=wrap;html=1;aspect=fixed;fillColor=#006600;" parent="JcOVOQEbRMuo3JMYJcRL-28" vertex="1">
          <mxGeometry x="60" y="10" width="30" height="30" as="geometry" />
        </mxCell>
        <mxCell id="JcOVOQEbRMuo3JMYJcRL-8" value="" style="ellipse;whiteSpace=wrap;html=1;aspect=fixed;fillColor=#006600;" parent="JcOVOQEbRMuo3JMYJcRL-28" vertex="1">
          <mxGeometry x="10" y="10" width="30" height="30" as="geometry" />
        </mxCell>
        <mxCell id="JcOVOQEbRMuo3JMYJcRL-9" value="" style="ellipse;whiteSpace=wrap;html=1;aspect=fixed;fillColor=#FF99CC;" parent="JcOVOQEbRMuo3JMYJcRL-28" vertex="1">
          <mxGeometry x="40" y="40" width="20" height="20" as="geometry" />
        </mxCell>
        <mxCell id="JcOVOQEbRMuo3JMYJcRL-22" value="" style="whiteSpace=wrap;html=1;shape=mxgraph.basic.pointed_oval;flipH=1;flipV=1;direction=south;fillColor=light-dark(#FFE804,#000000);" parent="JcOVOQEbRMuo3JMYJcRL-28" vertex="1">
          <mxGeometry x="7.5" y="150" width="35" height="20" as="geometry" />
        </mxCell>
        <mxCell id="JcOVOQEbRMuo3JMYJcRL-23" value="" style="whiteSpace=wrap;html=1;shape=mxgraph.basic.pointed_oval;flipH=1;flipV=1;direction=south;fillColor=light-dark(#FFE804,#000000);" parent="JcOVOQEbRMuo3JMYJcRL-28" vertex="1">
          <mxGeometry x="60" y="150" width="35" height="20" as="geometry" />
        </mxCell>
        <mxCell id="JcOVOQEbRMuo3JMYJcRL-24" value="" style="whiteSpace=wrap;html=1;shape=mxgraph.basic.pointed_oval;flipH=1;flipV=1;direction=south;fillColor=light-dark(#FFE804,#000000);" parent="JcOVOQEbRMuo3JMYJcRL-28" vertex="1">
          <mxGeometry x="7.5" y="180" width="35" height="20" as="geometry" />
        </mxCell>
        <mxCell id="JcOVOQEbRMuo3JMYJcRL-25" value="" style="whiteSpace=wrap;html=1;shape=mxgraph.basic.pointed_oval;flipH=1;flipV=1;direction=south;fillColor=light-dark(#FFE804,#000000);" parent="JcOVOQEbRMuo3JMYJcRL-28" vertex="1">
          <mxGeometry x="60" y="180" width="35" height="20" as="geometry" />
        </mxCell>
        <mxCell id="JcOVOQEbRMuo3JMYJcRL-26" value="" style="whiteSpace=wrap;html=1;shape=mxgraph.basic.pointed_oval;flipH=1;flipV=1;direction=south;fillColor=light-dark(#FFE804,#000000);" parent="JcOVOQEbRMuo3JMYJcRL-28" vertex="1">
          <mxGeometry x="60" y="120" width="35" height="20" as="geometry" />
        </mxCell>
        <mxCell id="JcOVOQEbRMuo3JMYJcRL-27" value="" style="whiteSpace=wrap;html=1;shape=mxgraph.basic.pointed_oval;flipH=1;flipV=1;direction=south;fillColor=light-dark(#FFE804,#000000);" parent="JcOVOQEbRMuo3JMYJcRL-28" vertex="1">
          <mxGeometry x="7.5" y="120" width="35" height="20" as="geometry" />
        </mxCell>
        <mxCell id="JcOVOQEbRMuo3JMYJcRL-125" value="" style="shape=stencil(rVTBboMwDP2WHXykCgnt4Agpve0jOsoGKoUKoqb7+9mYttlAokOTosR5Tp7tpzigdHf5BCmup6ruQG1BysKYM6gY5A6HtXZl1app8dBOCiFw6W9IvHQpc5s0V76GHvIKZ5agUhDIRAgo/eJ5ZKRriAOINmREGsINguj5eTYr26zK0c4Gfp8ZEfj6BbS8j0LedqZtjjlj79U+O7qwZ8uDKdgp2fFRVhUDdVPnjFHx07lHgHGS4GYoSANIQioIqwm3EMZT1Zz3GFSKA8d561PXcnDPjZgq0zSJQWTt48okfo/PcwQRHqZpikM8l8eYQ9w5RmI60o/V/G89Hnks18PhWKzHQ9ORHrYozYLX9UotkuhlLUK5OR3i/y2pJ1pw7c8EmHwFSg+/SL/9Bg==);whiteSpace=wrap;html=1;" parent="1" vertex="1">
          <mxGeometry x="20" y="1020" width="120" height="120" as="geometry" />
        </mxCell>
        <mxCell id="JcOVOQEbRMuo3JMYJcRL-278" value="" style="group" parent="1" vertex="1" connectable="0">
          <mxGeometry x="30" y="130" width="80" height="80" as="geometry" />
        </mxCell>
        <mxCell id="JcOVOQEbRMuo3JMYJcRL-36" value="" style="ellipse;whiteSpace=wrap;html=1;aspect=fixed;fillColor=#006600;container=0;" parent="JcOVOQEbRMuo3JMYJcRL-278" vertex="1">
          <mxGeometry x="50" y="50" width="30" height="30" as="geometry" />
        </mxCell>
        <mxCell id="JcOVOQEbRMuo3JMYJcRL-37" value="" style="ellipse;whiteSpace=wrap;html=1;aspect=fixed;fillColor=#006600;container=0;" parent="JcOVOQEbRMuo3JMYJcRL-278" vertex="1">
          <mxGeometry y="50" width="30" height="30" as="geometry" />
        </mxCell>
        <mxCell id="JcOVOQEbRMuo3JMYJcRL-38" value="" style="ellipse;whiteSpace=wrap;html=1;aspect=fixed;fillColor=#006600;container=0;" parent="JcOVOQEbRMuo3JMYJcRL-278" vertex="1">
          <mxGeometry x="50" width="30" height="30" as="geometry" />
        </mxCell>
        <mxCell id="JcOVOQEbRMuo3JMYJcRL-39" value="" style="ellipse;whiteSpace=wrap;html=1;aspect=fixed;fillColor=#006600;container=0;" parent="JcOVOQEbRMuo3JMYJcRL-278" vertex="1">
          <mxGeometry width="30" height="30" as="geometry" />
        </mxCell>
        <mxCell id="JcOVOQEbRMuo3JMYJcRL-40" value="" style="ellipse;whiteSpace=wrap;html=1;aspect=fixed;fillColor=#FF99CC;container=0;" parent="JcOVOQEbRMuo3JMYJcRL-278" vertex="1">
          <mxGeometry x="30" y="30" width="20" height="20" as="geometry" />
        </mxCell>
        <mxCell id="JcOVOQEbRMuo3JMYJcRL-295" value="" style="group" parent="1" vertex="1" connectable="0">
          <mxGeometry x="620" y="560" width="100" height="210" as="geometry" />
        </mxCell>
        <mxCell id="JcOVOQEbRMuo3JMYJcRL-252" value="" style="rounded=1;whiteSpace=wrap;html=1;fillColor=light-dark(#000000,var(--ge-dark-color, #121212));container=0;" parent="JcOVOQEbRMuo3JMYJcRL-295" vertex="1">
          <mxGeometry width="100" height="210" as="geometry" />
        </mxCell>
        <mxCell id="JcOVOQEbRMuo3JMYJcRL-280" value="" style="ellipse;whiteSpace=wrap;html=1;aspect=fixed;fillColor=#006600;container=0;" parent="JcOVOQEbRMuo3JMYJcRL-295" vertex="1">
          <mxGeometry x="60" y="65" width="30" height="30" as="geometry" />
        </mxCell>
        <mxCell id="JcOVOQEbRMuo3JMYJcRL-281" value="" style="ellipse;whiteSpace=wrap;html=1;aspect=fixed;fillColor=#006600;container=0;" parent="JcOVOQEbRMuo3JMYJcRL-295" vertex="1">
          <mxGeometry x="10" y="65" width="30" height="30" as="geometry" />
        </mxCell>
        <mxCell id="JcOVOQEbRMuo3JMYJcRL-282" value="" style="ellipse;whiteSpace=wrap;html=1;aspect=fixed;fillColor=#006600;container=0;" parent="JcOVOQEbRMuo3JMYJcRL-295" vertex="1">
          <mxGeometry x="60" y="15" width="30" height="30" as="geometry" />
        </mxCell>
        <mxCell id="JcOVOQEbRMuo3JMYJcRL-283" value="" style="ellipse;whiteSpace=wrap;html=1;aspect=fixed;fillColor=#006600;container=0;" parent="JcOVOQEbRMuo3JMYJcRL-295" vertex="1">
          <mxGeometry x="10" y="15" width="30" height="30" as="geometry" />
        </mxCell>
        <mxCell id="JcOVOQEbRMuo3JMYJcRL-284" value="" style="ellipse;whiteSpace=wrap;html=1;aspect=fixed;fillColor=#FF99CC;container=0;" parent="JcOVOQEbRMuo3JMYJcRL-295" vertex="1">
          <mxGeometry x="40" y="45" width="20" height="20" as="geometry" />
        </mxCell>
        <mxCell id="JcOVOQEbRMuo3JMYJcRL-301" value="" style="group" parent="JcOVOQEbRMuo3JMYJcRL-295" vertex="1" connectable="0">
          <mxGeometry x="10" y="160" width="80" height="30" as="geometry" />
        </mxCell>
        <mxCell id="JcOVOQEbRMuo3JMYJcRL-94" value="" style="ellipse;whiteSpace=wrap;html=1;aspect=fixed;fillColor=#FF99CC;movable=1;resizable=1;rotatable=1;deletable=1;editable=1;locked=0;connectable=1;container=0;" parent="JcOVOQEbRMuo3JMYJcRL-301" vertex="1">
          <mxGeometry x="50" width="30" height="30" as="geometry" />
        </mxCell>
        <mxCell id="JcOVOQEbRMuo3JMYJcRL-95" value="" style="ellipse;whiteSpace=wrap;html=1;aspect=fixed;fillColor=#FF99CC;movable=1;resizable=1;rotatable=1;deletable=1;editable=1;locked=0;connectable=1;container=0;" parent="JcOVOQEbRMuo3JMYJcRL-301" vertex="1">
          <mxGeometry width="30" height="30" as="geometry" />
        </mxCell>
        <mxCell id="JcOVOQEbRMuo3JMYJcRL-351" value="" style="group" parent="1" vertex="1" connectable="0">
          <mxGeometry x="747" y="566" width="100" height="210" as="geometry" />
        </mxCell>
        <mxCell id="JcOVOQEbRMuo3JMYJcRL-332" value="" style="rounded=1;whiteSpace=wrap;html=1;fillColor=light-dark(#000000,var(--ge-dark-color, #121212));container=0;" parent="JcOVOQEbRMuo3JMYJcRL-351" vertex="1">
          <mxGeometry width="100" height="210" as="geometry" />
        </mxCell>
        <mxCell id="JcOVOQEbRMuo3JMYJcRL-333" value="" style="edgeStyle=none;rounded=0;orthogonalLoop=1;jettySize=auto;html=1;" parent="JcOVOQEbRMuo3JMYJcRL-351" target="JcOVOQEbRMuo3JMYJcRL-338" edge="1">
          <mxGeometry relative="1" as="geometry">
            <mxPoint x="49" y="148" as="sourcePoint" />
          </mxGeometry>
        </mxCell>
        <mxCell id="JcOVOQEbRMuo3JMYJcRL-334" value="" style="ellipse;whiteSpace=wrap;html=1;aspect=fixed;fillColor=#006600;container=0;" parent="JcOVOQEbRMuo3JMYJcRL-351" vertex="1">
          <mxGeometry x="60" y="65" width="30" height="30" as="geometry" />
        </mxCell>
        <mxCell id="JcOVOQEbRMuo3JMYJcRL-335" value="" style="ellipse;whiteSpace=wrap;html=1;aspect=fixed;fillColor=#006600;container=0;" parent="JcOVOQEbRMuo3JMYJcRL-351" vertex="1">
          <mxGeometry x="10" y="65" width="30" height="30" as="geometry" />
        </mxCell>
        <mxCell id="JcOVOQEbRMuo3JMYJcRL-336" value="" style="ellipse;whiteSpace=wrap;html=1;aspect=fixed;fillColor=#006600;container=0;" parent="JcOVOQEbRMuo3JMYJcRL-351" vertex="1">
          <mxGeometry x="60" y="15" width="30" height="30" as="geometry" />
        </mxCell>
        <mxCell id="JcOVOQEbRMuo3JMYJcRL-337" value="" style="ellipse;whiteSpace=wrap;html=1;aspect=fixed;fillColor=#006600;container=0;" parent="JcOVOQEbRMuo3JMYJcRL-351" vertex="1">
          <mxGeometry x="10" y="15" width="30" height="30" as="geometry" />
        </mxCell>
        <mxCell id="JcOVOQEbRMuo3JMYJcRL-338" value="" style="ellipse;whiteSpace=wrap;html=1;aspect=fixed;fillColor=#FF99CC;container=0;" parent="JcOVOQEbRMuo3JMYJcRL-351" vertex="1">
          <mxGeometry x="40" y="45" width="20" height="20" as="geometry" />
        </mxCell>
        <mxCell id="JcOVOQEbRMuo3JMYJcRL-350" value="" style="ellipse;whiteSpace=wrap;html=1;aspect=fixed;fillColor=light-dark(#990000,var(--ge-dark-color, #121212));container=0;" parent="JcOVOQEbRMuo3JMYJcRL-351" vertex="1">
          <mxGeometry x="15" y="124" width="70" height="70" as="geometry" />
        </mxCell>
        <mxCell id="JcOVOQEbRMuo3JMYJcRL-359" value="" style="group" parent="1" vertex="1" connectable="0">
          <mxGeometry x="370" y="20" width="80" height="80" as="geometry" />
        </mxCell>
        <mxCell id="JcOVOQEbRMuo3JMYJcRL-98" value="" style="ellipse;whiteSpace=wrap;html=1;aspect=fixed;fillColor=#990000;container=0;" parent="JcOVOQEbRMuo3JMYJcRL-359" vertex="1">
          <mxGeometry x="50" y="50" width="30" height="30" as="geometry" />
        </mxCell>
        <mxCell id="JcOVOQEbRMuo3JMYJcRL-99" value="" style="ellipse;whiteSpace=wrap;html=1;aspect=fixed;fillColor=#990000;container=0;" parent="JcOVOQEbRMuo3JMYJcRL-359" vertex="1">
          <mxGeometry y="50" width="30" height="30" as="geometry" />
        </mxCell>
        <mxCell id="JcOVOQEbRMuo3JMYJcRL-100" value="" style="ellipse;whiteSpace=wrap;html=1;aspect=fixed;fillColor=#990000;container=0;" parent="JcOVOQEbRMuo3JMYJcRL-359" vertex="1">
          <mxGeometry x="50" width="30" height="30" as="geometry" />
        </mxCell>
        <mxCell id="JcOVOQEbRMuo3JMYJcRL-101" value="" style="ellipse;whiteSpace=wrap;html=1;aspect=fixed;fillColor=#990000;container=0;" parent="JcOVOQEbRMuo3JMYJcRL-359" vertex="1">
          <mxGeometry width="30" height="30" as="geometry" />
        </mxCell>
        <mxCell id="JcOVOQEbRMuo3JMYJcRL-377" value="" style="group" parent="1" vertex="1" connectable="0">
          <mxGeometry x="1220" y="570" width="100" height="210" as="geometry" />
        </mxCell>
        <mxCell id="JcOVOQEbRMuo3JMYJcRL-378" value="" style="rounded=1;whiteSpace=wrap;html=1;fillColor=light-dark(#000000,var(--ge-dark-color, #121212));container=0;" parent="JcOVOQEbRMuo3JMYJcRL-377" vertex="1">
          <mxGeometry width="100" height="210" as="geometry" />
        </mxCell>
        <mxCell id="JcOVOQEbRMuo3JMYJcRL-379" value="" style="edgeStyle=none;rounded=0;orthogonalLoop=1;jettySize=auto;html=1;" parent="JcOVOQEbRMuo3JMYJcRL-377" target="JcOVOQEbRMuo3JMYJcRL-384" edge="1">
          <mxGeometry relative="1" as="geometry">
            <mxPoint x="49" y="148" as="sourcePoint" />
          </mxGeometry>
        </mxCell>
        <mxCell id="JcOVOQEbRMuo3JMYJcRL-380" value="" style="ellipse;whiteSpace=wrap;html=1;aspect=fixed;fillColor=#006600;container=0;" parent="JcOVOQEbRMuo3JMYJcRL-377" vertex="1">
          <mxGeometry x="60" y="65" width="30" height="30" as="geometry" />
        </mxCell>
        <mxCell id="JcOVOQEbRMuo3JMYJcRL-381" value="" style="ellipse;whiteSpace=wrap;html=1;aspect=fixed;fillColor=#006600;container=0;" parent="JcOVOQEbRMuo3JMYJcRL-377" vertex="1">
          <mxGeometry x="10" y="65" width="30" height="30" as="geometry" />
        </mxCell>
        <mxCell id="JcOVOQEbRMuo3JMYJcRL-382" value="" style="ellipse;whiteSpace=wrap;html=1;aspect=fixed;fillColor=#006600;container=0;" parent="JcOVOQEbRMuo3JMYJcRL-377" vertex="1">
          <mxGeometry x="60" y="15" width="30" height="30" as="geometry" />
        </mxCell>
        <mxCell id="JcOVOQEbRMuo3JMYJcRL-383" value="" style="ellipse;whiteSpace=wrap;html=1;aspect=fixed;fillColor=#006600;container=0;" parent="JcOVOQEbRMuo3JMYJcRL-377" vertex="1">
          <mxGeometry x="10" y="15" width="30" height="30" as="geometry" />
        </mxCell>
        <mxCell id="JcOVOQEbRMuo3JMYJcRL-384" value="" style="ellipse;whiteSpace=wrap;html=1;aspect=fixed;fillColor=#FF99CC;container=0;" parent="JcOVOQEbRMuo3JMYJcRL-377" vertex="1">
          <mxGeometry x="40" y="45" width="20" height="20" as="geometry" />
        </mxCell>
        <mxCell id="JcOVOQEbRMuo3JMYJcRL-393" value="" style="group" parent="JcOVOQEbRMuo3JMYJcRL-377" vertex="1" connectable="0">
          <mxGeometry x="5" y="110" width="90" height="90" as="geometry" />
        </mxCell>
        <mxCell id="JcOVOQEbRMuo3JMYJcRL-56" value="" style="ellipse;whiteSpace=wrap;html=1;aspect=fixed;fillColor=#FFFFFF;container=0;" parent="JcOVOQEbRMuo3JMYJcRL-393" vertex="1">
          <mxGeometry x="60" y="60" width="30" height="30" as="geometry" />
        </mxCell>
        <mxCell id="JcOVOQEbRMuo3JMYJcRL-57" value="" style="ellipse;whiteSpace=wrap;html=1;aspect=fixed;fillColor=#FFFFFF;container=0;" parent="JcOVOQEbRMuo3JMYJcRL-393" vertex="1">
          <mxGeometry width="30" height="30" as="geometry" />
        </mxCell>
        <mxCell id="JcOVOQEbRMuo3JMYJcRL-58" value="" style="ellipse;whiteSpace=wrap;html=1;aspect=fixed;fillColor=#FFFFFF;container=0;" parent="JcOVOQEbRMuo3JMYJcRL-393" vertex="1">
          <mxGeometry x="30" y="30" width="30" height="30" as="geometry" />
        </mxCell>
        <mxCell id="JcOVOQEbRMuo3JMYJcRL-386" value="" style="group" parent="1" vertex="1" connectable="0">
          <mxGeometry x="33" y="347" width="87.5" height="80" as="geometry" />
        </mxCell>
        <mxCell id="JcOVOQEbRMuo3JMYJcRL-387" value="" style="whiteSpace=wrap;html=1;shape=mxgraph.basic.pointed_oval;flipH=1;flipV=1;direction=south;fillColor=light-dark(#FFE804,#000000);" parent="JcOVOQEbRMuo3JMYJcRL-386" vertex="1">
          <mxGeometry y="30" width="35" height="20" as="geometry" />
        </mxCell>
        <mxCell id="JcOVOQEbRMuo3JMYJcRL-388" value="" style="whiteSpace=wrap;html=1;shape=mxgraph.basic.pointed_oval;flipH=1;flipV=1;direction=south;fillColor=light-dark(#FFE804,#000000);" parent="JcOVOQEbRMuo3JMYJcRL-386" vertex="1">
          <mxGeometry x="52.5" y="30" width="35" height="20" as="geometry" />
        </mxCell>
        <mxCell id="JcOVOQEbRMuo3JMYJcRL-389" value="" style="whiteSpace=wrap;html=1;shape=mxgraph.basic.pointed_oval;flipH=1;flipV=1;direction=south;fillColor=light-dark(#FFE804,#000000);" parent="JcOVOQEbRMuo3JMYJcRL-386" vertex="1">
          <mxGeometry y="60" width="35" height="20" as="geometry" />
        </mxCell>
        <mxCell id="JcOVOQEbRMuo3JMYJcRL-390" value="" style="whiteSpace=wrap;html=1;shape=mxgraph.basic.pointed_oval;flipH=1;flipV=1;direction=south;fillColor=light-dark(#FFE804,#000000);" parent="JcOVOQEbRMuo3JMYJcRL-386" vertex="1">
          <mxGeometry x="52.5" y="60" width="35" height="20" as="geometry" />
        </mxCell>
        <mxCell id="JcOVOQEbRMuo3JMYJcRL-391" value="" style="whiteSpace=wrap;html=1;shape=mxgraph.basic.pointed_oval;flipH=1;flipV=1;direction=south;fillColor=light-dark(#FFE804,#000000);" parent="JcOVOQEbRMuo3JMYJcRL-386" vertex="1">
          <mxGeometry x="52.5" width="35" height="20" as="geometry" />
        </mxCell>
        <mxCell id="JcOVOQEbRMuo3JMYJcRL-392" value="" style="whiteSpace=wrap;html=1;shape=mxgraph.basic.pointed_oval;flipH=1;flipV=1;direction=south;fillColor=light-dark(#FFE804,#000000);" parent="JcOVOQEbRMuo3JMYJcRL-386" vertex="1">
          <mxGeometry width="35" height="20" as="geometry" />
        </mxCell>
        <mxCell id="JcOVOQEbRMuo3JMYJcRL-409" value="" style="group" parent="1" vertex="1" connectable="0">
          <mxGeometry x="620" y="780" width="101" height="282" as="geometry" />
        </mxCell>
        <mxCell id="JcOVOQEbRMuo3JMYJcRL-399" value="" style="rounded=1;whiteSpace=wrap;html=1;fillColor=light-dark(#000000,var(--ge-dark-color, #121212));container=0;" parent="JcOVOQEbRMuo3JMYJcRL-409" vertex="1">
          <mxGeometry y="72" width="100" height="210" as="geometry" />
        </mxCell>
        <mxCell id="JcOVOQEbRMuo3JMYJcRL-400" value="" style="edgeStyle=none;rounded=0;orthogonalLoop=1;jettySize=auto;html=1;" parent="JcOVOQEbRMuo3JMYJcRL-409" edge="1">
          <mxGeometry relative="1" as="geometry">
            <mxPoint x="49" y="220" as="sourcePoint" />
            <mxPoint x="49.892479331499544" y="136.99942217054195" as="targetPoint" />
          </mxGeometry>
        </mxCell>
        <mxCell id="JcOVOQEbRMuo3JMYJcRL-467" value="" style="ellipse;whiteSpace=wrap;html=1;aspect=fixed;fillColor=light-dark(#990000,var(--ge-dark-color, #121212));container=0;" parent="JcOVOQEbRMuo3JMYJcRL-409" vertex="1">
          <mxGeometry x="15.5" y="88" width="70" height="70" as="geometry" />
        </mxCell>
        <mxCell id="JcOVOQEbRMuo3JMYJcRL-403" value="" style="whiteSpace=wrap;html=1;shape=mxgraph.basic.pointed_oval;flipH=1;flipV=1;direction=south;fillColor=light-dark(#FFE804,#000000);container=0;" parent="JcOVOQEbRMuo3JMYJcRL-409" vertex="1">
          <mxGeometry x="6.5" y="225" width="35" height="20" as="geometry" />
        </mxCell>
        <mxCell id="JcOVOQEbRMuo3JMYJcRL-404" value="" style="whiteSpace=wrap;html=1;shape=mxgraph.basic.pointed_oval;flipH=1;flipV=1;direction=south;fillColor=light-dark(#FFE804,#000000);container=0;" parent="JcOVOQEbRMuo3JMYJcRL-409" vertex="1">
          <mxGeometry x="59" y="225" width="35" height="20" as="geometry" />
        </mxCell>
        <mxCell id="JcOVOQEbRMuo3JMYJcRL-405" value="" style="whiteSpace=wrap;html=1;shape=mxgraph.basic.pointed_oval;flipH=1;flipV=1;direction=south;fillColor=light-dark(#FFE804,#000000);container=0;" parent="JcOVOQEbRMuo3JMYJcRL-409" vertex="1">
          <mxGeometry x="6.5" y="255" width="35" height="20" as="geometry" />
        </mxCell>
        <mxCell id="JcOVOQEbRMuo3JMYJcRL-406" value="" style="whiteSpace=wrap;html=1;shape=mxgraph.basic.pointed_oval;flipH=1;flipV=1;direction=south;fillColor=light-dark(#FFE804,#000000);container=0;" parent="JcOVOQEbRMuo3JMYJcRL-409" vertex="1">
          <mxGeometry x="59" y="255" width="35" height="20" as="geometry" />
        </mxCell>
        <mxCell id="JcOVOQEbRMuo3JMYJcRL-407" value="" style="whiteSpace=wrap;html=1;shape=mxgraph.basic.pointed_oval;flipH=1;flipV=1;direction=south;fillColor=light-dark(#FFE804,#000000);container=0;" parent="JcOVOQEbRMuo3JMYJcRL-409" vertex="1">
          <mxGeometry x="59" y="195" width="35" height="20" as="geometry" />
        </mxCell>
        <mxCell id="JcOVOQEbRMuo3JMYJcRL-408" value="" style="whiteSpace=wrap;html=1;shape=mxgraph.basic.pointed_oval;flipH=1;flipV=1;direction=south;fillColor=light-dark(#FFE804,#000000);container=0;" parent="JcOVOQEbRMuo3JMYJcRL-409" vertex="1">
          <mxGeometry x="6.5" y="195" width="35" height="20" as="geometry" />
        </mxCell>
        <mxCell id="JcOVOQEbRMuo3JMYJcRL-410" value="" style="group" parent="1" vertex="1" connectable="0">
          <mxGeometry x="760" y="780" width="101" height="210" as="geometry" />
        </mxCell>
        <mxCell id="JcOVOQEbRMuo3JMYJcRL-411" value="" style="group" parent="JcOVOQEbRMuo3JMYJcRL-410" vertex="1" connectable="0">
          <mxGeometry y="72" width="100" height="210" as="geometry" />
        </mxCell>
        <mxCell id="JcOVOQEbRMuo3JMYJcRL-412" value="" style="rounded=1;whiteSpace=wrap;html=1;fillColor=light-dark(#000000,var(--ge-dark-color, #121212));container=0;" parent="JcOVOQEbRMuo3JMYJcRL-411" vertex="1">
          <mxGeometry width="100" height="210" as="geometry" />
        </mxCell>
        <mxCell id="JcOVOQEbRMuo3JMYJcRL-413" value="" style="edgeStyle=none;rounded=0;orthogonalLoop=1;jettySize=auto;html=1;" parent="JcOVOQEbRMuo3JMYJcRL-411" edge="1">
          <mxGeometry relative="1" as="geometry">
            <mxPoint x="49" y="148" as="sourcePoint" />
            <mxPoint x="49.892479331499544" y="64.99942217054195" as="targetPoint" />
          </mxGeometry>
        </mxCell>
        <mxCell id="JcOVOQEbRMuo3JMYJcRL-474" value="" style="group" parent="JcOVOQEbRMuo3JMYJcRL-411" vertex="1" connectable="0">
          <mxGeometry x="10" y="18" width="80" height="80" as="geometry" />
        </mxCell>
        <mxCell id="JcOVOQEbRMuo3JMYJcRL-475" value="" style="ellipse;whiteSpace=wrap;html=1;aspect=fixed;fillColor=#990000;container=0;" parent="JcOVOQEbRMuo3JMYJcRL-474" vertex="1">
          <mxGeometry x="50" y="50" width="30" height="30" as="geometry" />
        </mxCell>
        <mxCell id="JcOVOQEbRMuo3JMYJcRL-476" value="" style="ellipse;whiteSpace=wrap;html=1;aspect=fixed;fillColor=#990000;container=0;" parent="JcOVOQEbRMuo3JMYJcRL-474" vertex="1">
          <mxGeometry y="50" width="30" height="30" as="geometry" />
        </mxCell>
        <mxCell id="JcOVOQEbRMuo3JMYJcRL-477" value="" style="ellipse;whiteSpace=wrap;html=1;aspect=fixed;fillColor=#990000;container=0;" parent="JcOVOQEbRMuo3JMYJcRL-474" vertex="1">
          <mxGeometry x="50" width="30" height="30" as="geometry" />
        </mxCell>
        <mxCell id="JcOVOQEbRMuo3JMYJcRL-478" value="" style="ellipse;whiteSpace=wrap;html=1;aspect=fixed;fillColor=#990000;container=0;" parent="JcOVOQEbRMuo3JMYJcRL-474" vertex="1">
          <mxGeometry width="30" height="30" as="geometry" />
        </mxCell>
        <mxCell id="JcOVOQEbRMuo3JMYJcRL-414" value="" style="group" parent="JcOVOQEbRMuo3JMYJcRL-410" vertex="1" connectable="0">
          <mxGeometry x="13.5" y="98" width="87.5" height="80" as="geometry" />
        </mxCell>
        <mxCell id="JcOVOQEbRMuo3JMYJcRL-415" value="" style="group" parent="JcOVOQEbRMuo3JMYJcRL-414" vertex="1" connectable="0">
          <mxGeometry x="-7" y="97" width="87.5" height="80" as="geometry" />
        </mxCell>
        <mxCell id="JcOVOQEbRMuo3JMYJcRL-416" value="" style="whiteSpace=wrap;html=1;shape=mxgraph.basic.pointed_oval;flipH=1;flipV=1;direction=south;fillColor=light-dark(#FFE804,#000000);" parent="JcOVOQEbRMuo3JMYJcRL-415" vertex="1">
          <mxGeometry y="30" width="35" height="20" as="geometry" />
        </mxCell>
        <mxCell id="JcOVOQEbRMuo3JMYJcRL-417" value="" style="whiteSpace=wrap;html=1;shape=mxgraph.basic.pointed_oval;flipH=1;flipV=1;direction=south;fillColor=light-dark(#FFE804,#000000);" parent="JcOVOQEbRMuo3JMYJcRL-415" vertex="1">
          <mxGeometry x="52.5" y="30" width="35" height="20" as="geometry" />
        </mxCell>
        <mxCell id="JcOVOQEbRMuo3JMYJcRL-418" value="" style="whiteSpace=wrap;html=1;shape=mxgraph.basic.pointed_oval;flipH=1;flipV=1;direction=south;fillColor=light-dark(#FFE804,#000000);" parent="JcOVOQEbRMuo3JMYJcRL-415" vertex="1">
          <mxGeometry y="60" width="35" height="20" as="geometry" />
        </mxCell>
        <mxCell id="JcOVOQEbRMuo3JMYJcRL-419" value="" style="whiteSpace=wrap;html=1;shape=mxgraph.basic.pointed_oval;flipH=1;flipV=1;direction=south;fillColor=light-dark(#FFE804,#000000);" parent="JcOVOQEbRMuo3JMYJcRL-415" vertex="1">
          <mxGeometry x="52.5" y="60" width="35" height="20" as="geometry" />
        </mxCell>
        <mxCell id="JcOVOQEbRMuo3JMYJcRL-420" value="" style="whiteSpace=wrap;html=1;shape=mxgraph.basic.pointed_oval;flipH=1;flipV=1;direction=south;fillColor=light-dark(#FFE804,#000000);" parent="JcOVOQEbRMuo3JMYJcRL-415" vertex="1">
          <mxGeometry x="52.5" width="35" height="20" as="geometry" />
        </mxCell>
        <mxCell id="JcOVOQEbRMuo3JMYJcRL-421" value="" style="whiteSpace=wrap;html=1;shape=mxgraph.basic.pointed_oval;flipH=1;flipV=1;direction=south;fillColor=light-dark(#FFE804,#000000);" parent="JcOVOQEbRMuo3JMYJcRL-415" vertex="1">
          <mxGeometry width="35" height="20" as="geometry" />
        </mxCell>
        <mxCell id="JcOVOQEbRMuo3JMYJcRL-446" value="" style="group" parent="1" vertex="1" connectable="0">
          <mxGeometry x="1059.5" y="790" width="101" height="210" as="geometry" />
        </mxCell>
        <mxCell id="JcOVOQEbRMuo3JMYJcRL-447" value="" style="group" parent="JcOVOQEbRMuo3JMYJcRL-446" vertex="1" connectable="0">
          <mxGeometry y="72" width="100" height="210" as="geometry" />
        </mxCell>
        <mxCell id="JcOVOQEbRMuo3JMYJcRL-448" value="" style="rounded=1;whiteSpace=wrap;html=1;fillColor=light-dark(#000000,var(--ge-dark-color, #121212));container=0;" parent="JcOVOQEbRMuo3JMYJcRL-447" vertex="1">
          <mxGeometry width="100" height="210" as="geometry" />
        </mxCell>
        <mxCell id="JcOVOQEbRMuo3JMYJcRL-449" value="" style="edgeStyle=none;rounded=0;orthogonalLoop=1;jettySize=auto;html=1;" parent="JcOVOQEbRMuo3JMYJcRL-447" edge="1">
          <mxGeometry relative="1" as="geometry">
            <mxPoint x="49" y="148" as="sourcePoint" />
            <mxPoint x="49.892479331499544" y="64.99942217054195" as="targetPoint" />
          </mxGeometry>
        </mxCell>
        <mxCell id="JcOVOQEbRMuo3JMYJcRL-487" value="" style="group" parent="JcOVOQEbRMuo3JMYJcRL-447" vertex="1" connectable="0">
          <mxGeometry x="5" y="8" width="90" height="90" as="geometry" />
        </mxCell>
        <mxCell id="JcOVOQEbRMuo3JMYJcRL-395" value="" style="ellipse;whiteSpace=wrap;html=1;aspect=fixed;fillColor=#FFFFFF;container=0;" parent="JcOVOQEbRMuo3JMYJcRL-487" vertex="1">
          <mxGeometry x="60" y="60" width="30" height="30" as="geometry" />
        </mxCell>
        <mxCell id="JcOVOQEbRMuo3JMYJcRL-396" value="" style="ellipse;whiteSpace=wrap;html=1;aspect=fixed;fillColor=#FFFFFF;container=0;" parent="JcOVOQEbRMuo3JMYJcRL-487" vertex="1">
          <mxGeometry width="30" height="30" as="geometry" />
        </mxCell>
        <mxCell id="JcOVOQEbRMuo3JMYJcRL-397" value="" style="ellipse;whiteSpace=wrap;html=1;aspect=fixed;fillColor=#FFFFFF;container=0;" parent="JcOVOQEbRMuo3JMYJcRL-487" vertex="1">
          <mxGeometry x="30" y="30" width="30" height="30" as="geometry" />
        </mxCell>
        <mxCell id="JcOVOQEbRMuo3JMYJcRL-450" value="" style="group" parent="JcOVOQEbRMuo3JMYJcRL-446" vertex="1" connectable="0">
          <mxGeometry x="13.5" y="98" width="87.5" height="80" as="geometry" />
        </mxCell>
        <mxCell id="JcOVOQEbRMuo3JMYJcRL-451" value="" style="group" parent="JcOVOQEbRMuo3JMYJcRL-450" vertex="1" connectable="0">
          <mxGeometry x="-7" y="97" width="87.5" height="80" as="geometry" />
        </mxCell>
        <mxCell id="JcOVOQEbRMuo3JMYJcRL-452" value="" style="whiteSpace=wrap;html=1;shape=mxgraph.basic.pointed_oval;flipH=1;flipV=1;direction=south;fillColor=light-dark(#FFE804,#000000);" parent="JcOVOQEbRMuo3JMYJcRL-451" vertex="1">
          <mxGeometry y="30" width="35" height="20" as="geometry" />
        </mxCell>
        <mxCell id="JcOVOQEbRMuo3JMYJcRL-453" value="" style="whiteSpace=wrap;html=1;shape=mxgraph.basic.pointed_oval;flipH=1;flipV=1;direction=south;fillColor=light-dark(#FFE804,#000000);" parent="JcOVOQEbRMuo3JMYJcRL-451" vertex="1">
          <mxGeometry x="52.5" y="30" width="35" height="20" as="geometry" />
        </mxCell>
        <mxCell id="JcOVOQEbRMuo3JMYJcRL-454" value="" style="whiteSpace=wrap;html=1;shape=mxgraph.basic.pointed_oval;flipH=1;flipV=1;direction=south;fillColor=light-dark(#FFE804,#000000);" parent="JcOVOQEbRMuo3JMYJcRL-451" vertex="1">
          <mxGeometry y="60" width="35" height="20" as="geometry" />
        </mxCell>
        <mxCell id="JcOVOQEbRMuo3JMYJcRL-455" value="" style="whiteSpace=wrap;html=1;shape=mxgraph.basic.pointed_oval;flipH=1;flipV=1;direction=south;fillColor=light-dark(#FFE804,#000000);" parent="JcOVOQEbRMuo3JMYJcRL-451" vertex="1">
          <mxGeometry x="52.5" y="60" width="35" height="20" as="geometry" />
        </mxCell>
        <mxCell id="JcOVOQEbRMuo3JMYJcRL-456" value="" style="whiteSpace=wrap;html=1;shape=mxgraph.basic.pointed_oval;flipH=1;flipV=1;direction=south;fillColor=light-dark(#FFE804,#000000);" parent="JcOVOQEbRMuo3JMYJcRL-451" vertex="1">
          <mxGeometry x="52.5" width="35" height="20" as="geometry" />
        </mxCell>
        <mxCell id="JcOVOQEbRMuo3JMYJcRL-457" value="" style="whiteSpace=wrap;html=1;shape=mxgraph.basic.pointed_oval;flipH=1;flipV=1;direction=south;fillColor=light-dark(#FFE804,#000000);" parent="JcOVOQEbRMuo3JMYJcRL-451" vertex="1">
          <mxGeometry width="35" height="20" as="geometry" />
        </mxCell>
        <mxCell id="JcOVOQEbRMuo3JMYJcRL-483" value="" style="group" parent="1" vertex="1" connectable="0">
          <mxGeometry x="130" y="30" width="90" height="90" as="geometry" />
        </mxCell>
        <mxCell id="JcOVOQEbRMuo3JMYJcRL-484" value="" style="ellipse;whiteSpace=wrap;html=1;aspect=fixed;fillColor=#FFFFFF;container=0;" parent="JcOVOQEbRMuo3JMYJcRL-483" vertex="1">
          <mxGeometry x="60" y="60" width="30" height="30" as="geometry" />
        </mxCell>
        <mxCell id="JcOVOQEbRMuo3JMYJcRL-485" value="" style="ellipse;whiteSpace=wrap;html=1;aspect=fixed;fillColor=#FFFFFF;container=0;" parent="JcOVOQEbRMuo3JMYJcRL-483" vertex="1">
          <mxGeometry width="30" height="30" as="geometry" />
        </mxCell>
        <mxCell id="JcOVOQEbRMuo3JMYJcRL-486" value="" style="ellipse;whiteSpace=wrap;html=1;aspect=fixed;fillColor=#FFFFFF;container=0;" parent="JcOVOQEbRMuo3JMYJcRL-483" vertex="1">
          <mxGeometry x="30" y="30" width="30" height="30" as="geometry" />
        </mxCell>
        <mxCell id="JcOVOQEbRMuo3JMYJcRL-490" value="" style="group" parent="1" vertex="1" connectable="0">
          <mxGeometry x="490" y="560" width="100" height="210" as="geometry" />
        </mxCell>
        <mxCell id="JcOVOQEbRMuo3JMYJcRL-306" value="" style="rounded=1;whiteSpace=wrap;html=1;fillColor=light-dark(#000000,var(--ge-dark-color, #121212));container=0;" parent="JcOVOQEbRMuo3JMYJcRL-490" vertex="1">
          <mxGeometry width="100" height="210" as="geometry" />
        </mxCell>
        <mxCell id="JcOVOQEbRMuo3JMYJcRL-307" value="" style="edgeStyle=none;rounded=0;orthogonalLoop=1;jettySize=auto;html=1;" parent="JcOVOQEbRMuo3JMYJcRL-490" source="JcOVOQEbRMuo3JMYJcRL-317" target="JcOVOQEbRMuo3JMYJcRL-312" edge="1">
          <mxGeometry relative="1" as="geometry" />
        </mxCell>
        <mxCell id="JcOVOQEbRMuo3JMYJcRL-308" value="" style="ellipse;whiteSpace=wrap;html=1;aspect=fixed;fillColor=#006600;container=0;" parent="JcOVOQEbRMuo3JMYJcRL-490" vertex="1">
          <mxGeometry x="60" y="65" width="30" height="30" as="geometry" />
        </mxCell>
        <mxCell id="JcOVOQEbRMuo3JMYJcRL-309" value="" style="ellipse;whiteSpace=wrap;html=1;aspect=fixed;fillColor=#006600;container=0;" parent="JcOVOQEbRMuo3JMYJcRL-490" vertex="1">
          <mxGeometry x="10" y="65" width="30" height="30" as="geometry" />
        </mxCell>
        <mxCell id="JcOVOQEbRMuo3JMYJcRL-310" value="" style="ellipse;whiteSpace=wrap;html=1;aspect=fixed;fillColor=#006600;container=0;" parent="JcOVOQEbRMuo3JMYJcRL-490" vertex="1">
          <mxGeometry x="60" y="15" width="30" height="30" as="geometry" />
        </mxCell>
        <mxCell id="JcOVOQEbRMuo3JMYJcRL-311" value="" style="ellipse;whiteSpace=wrap;html=1;aspect=fixed;fillColor=#006600;container=0;" parent="JcOVOQEbRMuo3JMYJcRL-490" vertex="1">
          <mxGeometry x="10" y="15" width="30" height="30" as="geometry" />
        </mxCell>
        <mxCell id="JcOVOQEbRMuo3JMYJcRL-312" value="" style="ellipse;whiteSpace=wrap;html=1;aspect=fixed;fillColor=#FF99CC;container=0;" parent="JcOVOQEbRMuo3JMYJcRL-490" vertex="1">
          <mxGeometry x="40" y="45" width="20" height="20" as="geometry" />
        </mxCell>
        <mxCell id="JcOVOQEbRMuo3JMYJcRL-313" value="" style="ellipse;whiteSpace=wrap;html=1;aspect=fixed;fillColor=#006600;container=0;" parent="JcOVOQEbRMuo3JMYJcRL-490" vertex="1">
          <mxGeometry x="59" y="168" width="30" height="30" as="geometry" />
        </mxCell>
        <mxCell id="JcOVOQEbRMuo3JMYJcRL-314" value="" style="ellipse;whiteSpace=wrap;html=1;aspect=fixed;fillColor=#006600;container=0;" parent="JcOVOQEbRMuo3JMYJcRL-490" vertex="1">
          <mxGeometry x="9" y="168" width="30" height="30" as="geometry" />
        </mxCell>
        <mxCell id="JcOVOQEbRMuo3JMYJcRL-315" value="" style="ellipse;whiteSpace=wrap;html=1;aspect=fixed;fillColor=#006600;container=0;" parent="JcOVOQEbRMuo3JMYJcRL-490" vertex="1">
          <mxGeometry x="59" y="118" width="30" height="30" as="geometry" />
        </mxCell>
        <mxCell id="JcOVOQEbRMuo3JMYJcRL-316" value="" style="ellipse;whiteSpace=wrap;html=1;aspect=fixed;fillColor=#006600;container=0;" parent="JcOVOQEbRMuo3JMYJcRL-490" vertex="1">
          <mxGeometry x="9" y="118" width="30" height="30" as="geometry" />
        </mxCell>
        <mxCell id="JcOVOQEbRMuo3JMYJcRL-317" value="" style="ellipse;whiteSpace=wrap;html=1;aspect=fixed;fillColor=#FF99CC;container=0;" parent="JcOVOQEbRMuo3JMYJcRL-490" vertex="1">
          <mxGeometry x="39" y="148" width="20" height="20" as="geometry" />
        </mxCell>
        <mxCell id="JcOVOQEbRMuo3JMYJcRL-524" value="" style="edgeStyle=none;rounded=0;orthogonalLoop=1;jettySize=auto;html=1;" parent="1" target="JcOVOQEbRMuo3JMYJcRL-529" edge="1">
          <mxGeometry relative="1" as="geometry">
            <mxPoint x="2134" y="1613" as="sourcePoint" />
          </mxGeometry>
        </mxCell>
        <mxCell id="JcOVOQEbRMuo3JMYJcRL-525" value="" style="ellipse;whiteSpace=wrap;html=1;aspect=fixed;fillColor=#006600;container=0;" parent="1" vertex="1">
          <mxGeometry x="2145" y="1530" width="30" height="30" as="geometry" />
        </mxCell>
        <mxCell id="JcOVOQEbRMuo3JMYJcRL-526" value="" style="ellipse;whiteSpace=wrap;html=1;aspect=fixed;fillColor=#006600;container=0;" parent="1" vertex="1">
          <mxGeometry x="2095" y="1530" width="30" height="30" as="geometry" />
        </mxCell>
        <mxCell id="JcOVOQEbRMuo3JMYJcRL-527" value="" style="ellipse;whiteSpace=wrap;html=1;aspect=fixed;fillColor=#006600;container=0;" parent="1" vertex="1">
          <mxGeometry x="2145" y="1480" width="30" height="30" as="geometry" />
        </mxCell>
        <mxCell id="JcOVOQEbRMuo3JMYJcRL-528" value="" style="ellipse;whiteSpace=wrap;html=1;aspect=fixed;fillColor=#006600;container=0;" parent="1" vertex="1">
          <mxGeometry x="2095" y="1480" width="30" height="30" as="geometry" />
        </mxCell>
        <mxCell id="JcOVOQEbRMuo3JMYJcRL-529" value="" style="ellipse;whiteSpace=wrap;html=1;aspect=fixed;fillColor=#FF99CC;container=0;" parent="1" vertex="1">
          <mxGeometry x="2125" y="1510" width="20" height="20" as="geometry" />
        </mxCell>
        <mxCell id="JcOVOQEbRMuo3JMYJcRL-530" value="" style="group" parent="1" vertex="1" connectable="0">
          <mxGeometry x="2090" y="1575" width="90" height="90" as="geometry" />
        </mxCell>
        <mxCell id="JcOVOQEbRMuo3JMYJcRL-531" value="" style="ellipse;whiteSpace=wrap;html=1;aspect=fixed;fillColor=#FFFFFF;container=0;" parent="JcOVOQEbRMuo3JMYJcRL-530" vertex="1">
          <mxGeometry x="60" y="60" width="30" height="30" as="geometry" />
        </mxCell>
        <mxCell id="JcOVOQEbRMuo3JMYJcRL-532" value="" style="ellipse;whiteSpace=wrap;html=1;aspect=fixed;fillColor=#FFFFFF;container=0;" parent="JcOVOQEbRMuo3JMYJcRL-530" vertex="1">
          <mxGeometry width="30" height="30" as="geometry" />
        </mxCell>
        <mxCell id="JcOVOQEbRMuo3JMYJcRL-533" value="" style="ellipse;whiteSpace=wrap;html=1;aspect=fixed;fillColor=#FFFFFF;container=0;" parent="JcOVOQEbRMuo3JMYJcRL-530" vertex="1">
          <mxGeometry x="30" y="30" width="30" height="30" as="geometry" />
        </mxCell>
        <mxCell id="JcOVOQEbRMuo3JMYJcRL-534" value="" style="group" parent="1" vertex="1" connectable="0">
          <mxGeometry x="1130" y="310" width="100" height="210" as="geometry" />
        </mxCell>
        <mxCell id="JcOVOQEbRMuo3JMYJcRL-535" value="" style="rounded=1;whiteSpace=wrap;html=1;fillColor=light-dark(#000000,var(--ge-dark-color, #121212));container=0;" parent="JcOVOQEbRMuo3JMYJcRL-534" vertex="1">
          <mxGeometry width="100" height="210" as="geometry" />
        </mxCell>
        <mxCell id="JcOVOQEbRMuo3JMYJcRL-536" value="" style="edgeStyle=none;rounded=0;orthogonalLoop=1;jettySize=auto;html=1;" parent="JcOVOQEbRMuo3JMYJcRL-534" edge="1">
          <mxGeometry relative="1" as="geometry">
            <mxPoint x="49" y="148" as="sourcePoint" />
            <mxPoint x="49.89247933786373" y="64.99942157868645" as="targetPoint" />
          </mxGeometry>
        </mxCell>
        <mxCell id="JcOVOQEbRMuo3JMYJcRL-542" value="" style="group" parent="JcOVOQEbRMuo3JMYJcRL-534" vertex="1" connectable="0">
          <mxGeometry x="5" y="110" width="90" height="90" as="geometry" />
        </mxCell>
        <mxCell id="JcOVOQEbRMuo3JMYJcRL-543" value="" style="ellipse;whiteSpace=wrap;html=1;aspect=fixed;fillColor=#FFFFFF;container=0;" parent="JcOVOQEbRMuo3JMYJcRL-542" vertex="1">
          <mxGeometry x="60" y="60" width="30" height="30" as="geometry" />
        </mxCell>
        <mxCell id="JcOVOQEbRMuo3JMYJcRL-544" value="" style="ellipse;whiteSpace=wrap;html=1;aspect=fixed;fillColor=#FFFFFF;container=0;" parent="JcOVOQEbRMuo3JMYJcRL-542" vertex="1">
          <mxGeometry width="30" height="30" as="geometry" />
        </mxCell>
        <mxCell id="JcOVOQEbRMuo3JMYJcRL-545" value="" style="ellipse;whiteSpace=wrap;html=1;aspect=fixed;fillColor=#FFFFFF;container=0;" parent="JcOVOQEbRMuo3JMYJcRL-542" vertex="1">
          <mxGeometry x="30" y="30" width="30" height="30" as="geometry" />
        </mxCell>
        <mxCell id="JcOVOQEbRMuo3JMYJcRL-593" value="" style="group" parent="JcOVOQEbRMuo3JMYJcRL-534" vertex="1" connectable="0">
          <mxGeometry x="5" y="10" width="90" height="90" as="geometry" />
        </mxCell>
        <mxCell id="JcOVOQEbRMuo3JMYJcRL-594" value="" style="ellipse;whiteSpace=wrap;html=1;aspect=fixed;fillColor=#FFFFFF;container=0;" parent="JcOVOQEbRMuo3JMYJcRL-593" vertex="1">
          <mxGeometry x="60" y="60" width="30" height="30" as="geometry" />
        </mxCell>
        <mxCell id="JcOVOQEbRMuo3JMYJcRL-595" value="" style="ellipse;whiteSpace=wrap;html=1;aspect=fixed;fillColor=#FFFFFF;container=0;" parent="JcOVOQEbRMuo3JMYJcRL-593" vertex="1">
          <mxGeometry width="30" height="30" as="geometry" />
        </mxCell>
        <mxCell id="JcOVOQEbRMuo3JMYJcRL-596" value="" style="ellipse;whiteSpace=wrap;html=1;aspect=fixed;fillColor=#FFFFFF;container=0;" parent="JcOVOQEbRMuo3JMYJcRL-593" vertex="1">
          <mxGeometry x="30" y="30" width="30" height="30" as="geometry" />
        </mxCell>
        <mxCell id="JcOVOQEbRMuo3JMYJcRL-554" value="" style="group" parent="1" vertex="1" connectable="0">
          <mxGeometry x="850" y="300" width="100" height="210" as="geometry" />
        </mxCell>
        <mxCell id="JcOVOQEbRMuo3JMYJcRL-555" value="" style="rounded=1;whiteSpace=wrap;html=1;fillColor=light-dark(#000000,var(--ge-dark-color, #121212));container=0;" parent="JcOVOQEbRMuo3JMYJcRL-554" vertex="1">
          <mxGeometry width="100" height="210" as="geometry" />
        </mxCell>
        <mxCell id="JcOVOQEbRMuo3JMYJcRL-556" value="" style="edgeStyle=none;rounded=0;orthogonalLoop=1;jettySize=auto;html=1;" parent="JcOVOQEbRMuo3JMYJcRL-554" edge="1">
          <mxGeometry relative="1" as="geometry">
            <mxPoint x="49" y="148" as="sourcePoint" />
            <mxPoint x="49.89247933786373" y="64.99942157868645" as="targetPoint" />
          </mxGeometry>
        </mxCell>
        <mxCell id="JcOVOQEbRMuo3JMYJcRL-557" value="" style="group" parent="JcOVOQEbRMuo3JMYJcRL-554" vertex="1" connectable="0">
          <mxGeometry x="5" y="110" width="90" height="90" as="geometry" />
        </mxCell>
        <mxCell id="JcOVOQEbRMuo3JMYJcRL-558" value="" style="ellipse;whiteSpace=wrap;html=1;aspect=fixed;fillColor=#FFFFFF;container=0;" parent="JcOVOQEbRMuo3JMYJcRL-557" vertex="1">
          <mxGeometry x="60" y="60" width="30" height="30" as="geometry" />
        </mxCell>
        <mxCell id="JcOVOQEbRMuo3JMYJcRL-559" value="" style="ellipse;whiteSpace=wrap;html=1;aspect=fixed;fillColor=#FFFFFF;container=0;" parent="JcOVOQEbRMuo3JMYJcRL-557" vertex="1">
          <mxGeometry width="30" height="30" as="geometry" />
        </mxCell>
        <mxCell id="JcOVOQEbRMuo3JMYJcRL-560" value="" style="ellipse;whiteSpace=wrap;html=1;aspect=fixed;fillColor=#FFFFFF;container=0;" parent="JcOVOQEbRMuo3JMYJcRL-557" vertex="1">
          <mxGeometry x="30" y="30" width="30" height="30" as="geometry" />
        </mxCell>
        <mxCell id="JcOVOQEbRMuo3JMYJcRL-302" value="" style="group" parent="JcOVOQEbRMuo3JMYJcRL-554" vertex="1" connectable="0">
          <mxGeometry x="10" y="20" width="80" height="30" as="geometry" />
        </mxCell>
        <mxCell id="JcOVOQEbRMuo3JMYJcRL-303" value="" style="ellipse;whiteSpace=wrap;html=1;aspect=fixed;fillColor=#FF99CC;movable=1;resizable=1;rotatable=1;deletable=1;editable=1;locked=0;connectable=1;container=0;" parent="JcOVOQEbRMuo3JMYJcRL-302" vertex="1">
          <mxGeometry x="50" width="30" height="30" as="geometry" />
        </mxCell>
        <mxCell id="JcOVOQEbRMuo3JMYJcRL-304" value="" style="ellipse;whiteSpace=wrap;html=1;aspect=fixed;fillColor=#FF99CC;movable=1;resizable=1;rotatable=1;deletable=1;editable=1;locked=0;connectable=1;container=0;" parent="JcOVOQEbRMuo3JMYJcRL-302" vertex="1">
          <mxGeometry width="30" height="30" as="geometry" />
        </mxCell>
        <mxCell id="JcOVOQEbRMuo3JMYJcRL-617" value="" style="group" parent="1" vertex="1" connectable="0">
          <mxGeometry x="364" y="550" width="100" height="210" as="geometry" />
        </mxCell>
        <mxCell id="JcOVOQEbRMuo3JMYJcRL-2" value="" style="rounded=1;whiteSpace=wrap;html=1;fillColor=light-dark(#000000,var(--ge-dark-color, #121212));container=0;" parent="JcOVOQEbRMuo3JMYJcRL-617" vertex="1">
          <mxGeometry width="100" height="210" as="geometry" />
        </mxCell>
        <mxCell id="JcOVOQEbRMuo3JMYJcRL-52" value="" style="ellipse;whiteSpace=wrap;html=1;aspect=fixed;fillColor=#FFFFFF;container=0;" parent="JcOVOQEbRMuo3JMYJcRL-617" vertex="1">
          <mxGeometry x="65" y="170" width="30" height="30" as="geometry" />
        </mxCell>
        <mxCell id="JcOVOQEbRMuo3JMYJcRL-53" value="" style="ellipse;whiteSpace=wrap;html=1;aspect=fixed;fillColor=#FFFFFF;container=0;" parent="JcOVOQEbRMuo3JMYJcRL-617" vertex="1">
          <mxGeometry x="5" y="110" width="30" height="30" as="geometry" />
        </mxCell>
        <mxCell id="JcOVOQEbRMuo3JMYJcRL-54" value="" style="ellipse;whiteSpace=wrap;html=1;aspect=fixed;fillColor=#FFFFFF;container=0;" parent="JcOVOQEbRMuo3JMYJcRL-617" vertex="1">
          <mxGeometry x="35" y="140" width="30" height="30" as="geometry" />
        </mxCell>
        <mxCell id="JcOVOQEbRMuo3JMYJcRL-55" value="" style="ellipse;whiteSpace=wrap;html=1;aspect=fixed;fillColor=light-dark(#990000,var(--ge-dark-color, #121212));container=0;" parent="JcOVOQEbRMuo3JMYJcRL-617" vertex="1">
          <mxGeometry x="15" y="10" width="70" height="70" as="geometry" />
        </mxCell>
        <mxCell id="JcOVOQEbRMuo3JMYJcRL-618" value="" style="group" parent="1" vertex="1" connectable="0">
          <mxGeometry x="500" y="860" width="100" height="210" as="geometry" />
        </mxCell>
        <mxCell id="JcOVOQEbRMuo3JMYJcRL-597" value="" style="rounded=1;whiteSpace=wrap;html=1;fillColor=light-dark(#000000,var(--ge-dark-color, #121212));container=0;" parent="JcOVOQEbRMuo3JMYJcRL-618" vertex="1">
          <mxGeometry width="100" height="210" as="geometry" />
        </mxCell>
        <mxCell id="JcOVOQEbRMuo3JMYJcRL-598" value="" style="edgeStyle=none;rounded=0;orthogonalLoop=1;jettySize=auto;html=1;" parent="JcOVOQEbRMuo3JMYJcRL-618" edge="1">
          <mxGeometry relative="1" as="geometry">
            <mxPoint x="49" y="148" as="sourcePoint" />
            <mxPoint x="49.89247933468164" y="64.9994218746142" as="targetPoint" />
          </mxGeometry>
        </mxCell>
        <mxCell id="JcOVOQEbRMuo3JMYJcRL-599" value="" style="ellipse;whiteSpace=wrap;html=1;aspect=fixed;fillColor=#990000;container=0;movable=1;resizable=1;rotatable=1;deletable=1;editable=1;locked=0;connectable=1;" parent="JcOVOQEbRMuo3JMYJcRL-618" vertex="1">
          <mxGeometry x="60" y="171" width="30" height="30" as="geometry" />
        </mxCell>
        <mxCell id="JcOVOQEbRMuo3JMYJcRL-600" value="" style="ellipse;whiteSpace=wrap;html=1;aspect=fixed;fillColor=#990000;container=0;movable=1;resizable=1;rotatable=1;deletable=1;editable=1;locked=0;connectable=1;" parent="JcOVOQEbRMuo3JMYJcRL-618" vertex="1">
          <mxGeometry x="10" y="171" width="30" height="30" as="geometry" />
        </mxCell>
        <mxCell id="JcOVOQEbRMuo3JMYJcRL-601" value="" style="ellipse;whiteSpace=wrap;html=1;aspect=fixed;fillColor=#990000;container=0;movable=1;resizable=1;rotatable=1;deletable=1;editable=1;locked=0;connectable=1;" parent="JcOVOQEbRMuo3JMYJcRL-618" vertex="1">
          <mxGeometry x="60" y="121" width="30" height="30" as="geometry" />
        </mxCell>
        <mxCell id="JcOVOQEbRMuo3JMYJcRL-602" value="" style="ellipse;whiteSpace=wrap;html=1;aspect=fixed;fillColor=#990000;container=0;movable=1;resizable=1;rotatable=1;deletable=1;editable=1;locked=0;connectable=1;" parent="JcOVOQEbRMuo3JMYJcRL-618" vertex="1">
          <mxGeometry x="10" y="121" width="30" height="30" as="geometry" />
        </mxCell>
        <mxCell id="JcOVOQEbRMuo3JMYJcRL-616" value="" style="group" parent="JcOVOQEbRMuo3JMYJcRL-618" vertex="1" connectable="0">
          <mxGeometry x="10" y="15" width="80" height="30" as="geometry" />
        </mxCell>
        <mxCell id="JcOVOQEbRMuo3JMYJcRL-613" value="" style="ellipse;whiteSpace=wrap;html=1;aspect=fixed;fillColor=#FF99CC;movable=1;resizable=1;rotatable=1;deletable=1;editable=1;locked=0;connectable=1;container=0;" parent="JcOVOQEbRMuo3JMYJcRL-616" vertex="1">
          <mxGeometry x="50" width="30" height="30" as="geometry" />
        </mxCell>
        <mxCell id="JcOVOQEbRMuo3JMYJcRL-614" value="" style="ellipse;whiteSpace=wrap;html=1;aspect=fixed;fillColor=#FF99CC;movable=1;resizable=1;rotatable=1;deletable=1;editable=1;locked=0;connectable=1;container=0;" parent="JcOVOQEbRMuo3JMYJcRL-616" vertex="1">
          <mxGeometry width="30" height="30" as="geometry" />
        </mxCell>
        <mxCell id="JcOVOQEbRMuo3JMYJcRL-619" value="" style="group" parent="1" vertex="1" connectable="0">
          <mxGeometry x="1220" y="850" width="100" height="210" as="geometry" />
        </mxCell>
        <mxCell id="JcOVOQEbRMuo3JMYJcRL-491" value="" style="rounded=1;whiteSpace=wrap;html=1;fillColor=light-dark(#000000,var(--ge-dark-color, #121212));container=0;" parent="JcOVOQEbRMuo3JMYJcRL-619" vertex="1">
          <mxGeometry width="100" height="210" as="geometry" />
        </mxCell>
        <mxCell id="JcOVOQEbRMuo3JMYJcRL-492" value="" style="edgeStyle=none;rounded=0;orthogonalLoop=1;jettySize=auto;html=1;" parent="JcOVOQEbRMuo3JMYJcRL-619" edge="1">
          <mxGeometry relative="1" as="geometry">
            <mxPoint x="49" y="148" as="sourcePoint" />
            <mxPoint x="49.89247933468164" y="64.9994218746142" as="targetPoint" />
          </mxGeometry>
        </mxCell>
        <mxCell id="JcOVOQEbRMuo3JMYJcRL-498" value="" style="ellipse;whiteSpace=wrap;html=1;aspect=fixed;fillColor=#990000;container=0;movable=1;resizable=1;rotatable=1;deletable=1;editable=1;locked=0;connectable=1;" parent="JcOVOQEbRMuo3JMYJcRL-619" vertex="1">
          <mxGeometry x="60" y="171" width="30" height="30" as="geometry" />
        </mxCell>
        <mxCell id="JcOVOQEbRMuo3JMYJcRL-499" value="" style="ellipse;whiteSpace=wrap;html=1;aspect=fixed;fillColor=#990000;container=0;movable=1;resizable=1;rotatable=1;deletable=1;editable=1;locked=0;connectable=1;" parent="JcOVOQEbRMuo3JMYJcRL-619" vertex="1">
          <mxGeometry x="10" y="171" width="30" height="30" as="geometry" />
        </mxCell>
        <mxCell id="JcOVOQEbRMuo3JMYJcRL-500" value="" style="ellipse;whiteSpace=wrap;html=1;aspect=fixed;fillColor=#990000;container=0;movable=1;resizable=1;rotatable=1;deletable=1;editable=1;locked=0;connectable=1;" parent="JcOVOQEbRMuo3JMYJcRL-619" vertex="1">
          <mxGeometry x="60" y="121" width="30" height="30" as="geometry" />
        </mxCell>
        <mxCell id="JcOVOQEbRMuo3JMYJcRL-501" value="" style="ellipse;whiteSpace=wrap;html=1;aspect=fixed;fillColor=#990000;container=0;movable=1;resizable=1;rotatable=1;deletable=1;editable=1;locked=0;connectable=1;" parent="JcOVOQEbRMuo3JMYJcRL-619" vertex="1">
          <mxGeometry x="10" y="121" width="30" height="30" as="geometry" />
        </mxCell>
        <mxCell id="JcOVOQEbRMuo3JMYJcRL-516" value="" style="ellipse;whiteSpace=wrap;html=1;aspect=fixed;fillColor=#990000;container=0;" parent="JcOVOQEbRMuo3JMYJcRL-619" vertex="1">
          <mxGeometry x="61" y="64" width="30" height="30" as="geometry" />
        </mxCell>
        <mxCell id="JcOVOQEbRMuo3JMYJcRL-517" value="" style="ellipse;whiteSpace=wrap;html=1;aspect=fixed;fillColor=#990000;container=0;" parent="JcOVOQEbRMuo3JMYJcRL-619" vertex="1">
          <mxGeometry x="11" y="64" width="30" height="30" as="geometry" />
        </mxCell>
        <mxCell id="JcOVOQEbRMuo3JMYJcRL-518" value="" style="ellipse;whiteSpace=wrap;html=1;aspect=fixed;fillColor=#990000;container=0;" parent="JcOVOQEbRMuo3JMYJcRL-619" vertex="1">
          <mxGeometry x="61" y="14" width="30" height="30" as="geometry" />
        </mxCell>
        <mxCell id="JcOVOQEbRMuo3JMYJcRL-519" value="" style="ellipse;whiteSpace=wrap;html=1;aspect=fixed;fillColor=#990000;container=0;" parent="JcOVOQEbRMuo3JMYJcRL-619" vertex="1">
          <mxGeometry x="11" y="14" width="30" height="30" as="geometry" />
        </mxCell>
        <mxCell id="JcOVOQEbRMuo3JMYJcRL-620" value="" style="group" parent="1" vertex="1" connectable="0">
          <mxGeometry x="1250" y="310" width="100" height="210" as="geometry" />
        </mxCell>
        <mxCell id="JcOVOQEbRMuo3JMYJcRL-621" value="" style="rounded=1;whiteSpace=wrap;html=1;fillColor=light-dark(#000000,var(--ge-dark-color, #121212));container=0;" parent="JcOVOQEbRMuo3JMYJcRL-620" vertex="1">
          <mxGeometry width="100" height="210" as="geometry" />
        </mxCell>
        <mxCell id="JcOVOQEbRMuo3JMYJcRL-622" value="" style="edgeStyle=none;rounded=0;orthogonalLoop=1;jettySize=auto;html=1;" parent="JcOVOQEbRMuo3JMYJcRL-620" edge="1">
          <mxGeometry relative="1" as="geometry">
            <mxPoint x="49" y="148" as="sourcePoint" />
            <mxPoint x="49.89247933786373" y="64.99942157868645" as="targetPoint" />
          </mxGeometry>
        </mxCell>
        <mxCell id="JcOVOQEbRMuo3JMYJcRL-627" value="" style="group" parent="JcOVOQEbRMuo3JMYJcRL-620" vertex="1" connectable="0">
          <mxGeometry x="10" y="20" width="80" height="30" as="geometry" />
        </mxCell>
        <mxCell id="JcOVOQEbRMuo3JMYJcRL-628" value="" style="ellipse;whiteSpace=wrap;html=1;aspect=fixed;fillColor=#FF99CC;movable=1;resizable=1;rotatable=1;deletable=1;editable=1;locked=0;connectable=1;container=0;" parent="JcOVOQEbRMuo3JMYJcRL-627" vertex="1">
          <mxGeometry x="50" width="30" height="30" as="geometry" />
        </mxCell>
        <mxCell id="JcOVOQEbRMuo3JMYJcRL-629" value="" style="ellipse;whiteSpace=wrap;html=1;aspect=fixed;fillColor=#FF99CC;movable=1;resizable=1;rotatable=1;deletable=1;editable=1;locked=0;connectable=1;container=0;" parent="JcOVOQEbRMuo3JMYJcRL-627" vertex="1">
          <mxGeometry width="30" height="30" as="geometry" />
        </mxCell>
        <mxCell id="JcOVOQEbRMuo3JMYJcRL-566" value="" style="group" parent="JcOVOQEbRMuo3JMYJcRL-620" vertex="1" connectable="0">
          <mxGeometry x="10" y="160" width="80" height="30" as="geometry" />
        </mxCell>
        <mxCell id="JcOVOQEbRMuo3JMYJcRL-567" value="" style="ellipse;whiteSpace=wrap;html=1;aspect=fixed;fillColor=#FF99CC;movable=1;resizable=1;rotatable=1;deletable=1;editable=1;locked=0;connectable=1;container=0;" parent="JcOVOQEbRMuo3JMYJcRL-566" vertex="1">
          <mxGeometry x="50" width="30" height="30" as="geometry" />
        </mxCell>
        <mxCell id="JcOVOQEbRMuo3JMYJcRL-568" value="" style="ellipse;whiteSpace=wrap;html=1;aspect=fixed;fillColor=#FF99CC;movable=1;resizable=1;rotatable=1;deletable=1;editable=1;locked=0;connectable=1;container=0;" parent="JcOVOQEbRMuo3JMYJcRL-566" vertex="1">
          <mxGeometry width="30" height="30" as="geometry" />
        </mxCell>
        <mxCell id="JcOVOQEbRMuo3JMYJcRL-630" value="" style="group" parent="1" vertex="1" connectable="0">
          <mxGeometry x="285" y="70" width="80" height="30" as="geometry" />
        </mxCell>
        <mxCell id="JcOVOQEbRMuo3JMYJcRL-631" value="" style="ellipse;whiteSpace=wrap;html=1;aspect=fixed;fillColor=#FF99CC;movable=1;resizable=1;rotatable=1;deletable=1;editable=1;locked=0;connectable=1;container=0;" parent="JcOVOQEbRMuo3JMYJcRL-630" vertex="1">
          <mxGeometry x="50" width="30" height="30" as="geometry" />
        </mxCell>
        <mxCell id="JcOVOQEbRMuo3JMYJcRL-632" value="" style="ellipse;whiteSpace=wrap;html=1;aspect=fixed;fillColor=#FF99CC;movable=1;resizable=1;rotatable=1;deletable=1;editable=1;locked=0;connectable=1;container=0;" parent="JcOVOQEbRMuo3JMYJcRL-630" vertex="1">
          <mxGeometry width="30" height="30" as="geometry" />
        </mxCell>
        <mxCell id="JcOVOQEbRMuo3JMYJcRL-683" value="" style="group" parent="1" vertex="1" connectable="0">
          <mxGeometry x="340" y="850" width="100" height="210" as="geometry" />
        </mxCell>
        <mxCell id="JcOVOQEbRMuo3JMYJcRL-667" value="" style="rounded=1;whiteSpace=wrap;html=1;fillColor=light-dark(#000000,var(--ge-dark-color, #121212));container=0;" parent="JcOVOQEbRMuo3JMYJcRL-683" vertex="1">
          <mxGeometry width="100" height="210" as="geometry" />
        </mxCell>
        <mxCell id="JcOVOQEbRMuo3JMYJcRL-668" value="" style="edgeStyle=none;rounded=0;orthogonalLoop=1;jettySize=auto;html=1;" parent="JcOVOQEbRMuo3JMYJcRL-683" edge="1">
          <mxGeometry relative="1" as="geometry">
            <mxPoint x="49" y="148" as="sourcePoint" />
            <mxPoint x="49.89247933786373" y="64.99942157868645" as="targetPoint" />
          </mxGeometry>
        </mxCell>
        <mxCell id="JcOVOQEbRMuo3JMYJcRL-195" value="" style="verticalLabelPosition=bottom;verticalAlign=top;html=1;shape=mxgraph.basic.half_circle;rotation=105;container=0;" parent="JcOVOQEbRMuo3JMYJcRL-683" vertex="1">
          <mxGeometry x="-1.7499999999999432" y="139.83999999999997" width="70" height="35" as="geometry" />
        </mxCell>
        <mxCell id="JcOVOQEbRMuo3JMYJcRL-197" value="" style="verticalLabelPosition=bottom;verticalAlign=top;html=1;shape=mxgraph.basic.half_circle;rotation=-75;fillColor=light-dark(#990000,var(--ge-dark-color, #121212));container=0;" parent="JcOVOQEbRMuo3JMYJcRL-683" vertex="1">
          <mxGeometry x="31.750000000000057" y="149.08999999999997" width="70" height="35" as="geometry" />
        </mxCell>
        <mxCell id="JcOVOQEbRMuo3JMYJcRL-199" value="" style="verticalLabelPosition=bottom;verticalAlign=top;html=1;shape=mxgraph.basic.half_circle;rotation=105;fillColor=light-dark(#990000,var(--ge-dark-color, #121212));container=0;" parent="JcOVOQEbRMuo3JMYJcRL-683" vertex="1">
          <mxGeometry x="18.750000000000057" y="167.58999999999997" width="35" height="17.5" as="geometry" />
        </mxCell>
        <mxCell id="JcOVOQEbRMuo3JMYJcRL-200" value="" style="verticalLabelPosition=bottom;verticalAlign=top;html=1;shape=mxgraph.basic.half_circle;rotation=285;fillColor=light-dark(#FFFFFF,var(--ge-dark-color, #121212));container=0;" parent="JcOVOQEbRMuo3JMYJcRL-683" vertex="1">
          <mxGeometry x="45.25000000000006" y="139.08999999999997" width="35" height="17.5" as="geometry" />
        </mxCell>
        <mxCell id="JcOVOQEbRMuo3JMYJcRL-207" value="" style="strokeWidth=2;html=1;shape=mxgraph.flowchart.start_1;whiteSpace=wrap;strokeColor=light-dark(#FFFFFF,#FFFFFF);rotation=20;container=0;" parent="JcOVOQEbRMuo3JMYJcRL-683" vertex="1">
          <mxGeometry x="43.25000000000006" y="129.08999999999997" width="20" height="32" as="geometry" />
        </mxCell>
        <mxCell id="JcOVOQEbRMuo3JMYJcRL-209" value="" style="strokeWidth=2;html=1;shape=mxgraph.flowchart.start_1;whiteSpace=wrap;strokeColor=light-dark(#990000,#FFFFFF);fillColor=light-dark(#990000,var(--ge-dark-color, #121212));rotation=15;container=0;" parent="JcOVOQEbRMuo3JMYJcRL-683" vertex="1">
          <mxGeometry x="34.75000000000006" y="163.08999999999997" width="20" height="32" as="geometry" />
        </mxCell>
        <mxCell id="JcOVOQEbRMuo3JMYJcRL-210" value="" style="ellipse;whiteSpace=wrap;html=1;aspect=fixed;fillColor=light-dark(#000000,#000000);container=0;" parent="JcOVOQEbRMuo3JMYJcRL-683" vertex="1">
          <mxGeometry x="48.25000000000006" y="139.08999999999997" width="10" height="10" as="geometry" />
        </mxCell>
        <mxCell id="JcOVOQEbRMuo3JMYJcRL-211" value="" style="ellipse;whiteSpace=wrap;html=1;aspect=fixed;fillColor=light-dark(#FFE804,#000000);strokeColor=light-dark(#FFE804,#000000);container=0;" parent="JcOVOQEbRMuo3JMYJcRL-683" vertex="1">
          <mxGeometry x="48.25000000000006" y="175.08999999999997" width="10" height="10" as="geometry" />
        </mxCell>
        <mxCell id="JcOVOQEbRMuo3JMYJcRL-235" value="" style="verticalLabelPosition=bottom;verticalAlign=top;html=1;shape=mxgraph.basic.half_circle;rotation=105;fillColor=light-dark(#990000,var(--ge-dark-color, #121212));container=0;" parent="JcOVOQEbRMuo3JMYJcRL-683" vertex="1">
          <mxGeometry x="-1.0399999999999636" y="25.840000000000032" width="70" height="35" as="geometry" />
        </mxCell>
        <mxCell id="JcOVOQEbRMuo3JMYJcRL-236" value="" style="verticalLabelPosition=bottom;verticalAlign=top;html=1;shape=mxgraph.basic.half_circle;rotation=-75;fillColor=light-dark(#FFFFFF,var(--ge-dark-color, #121212));container=0;" parent="JcOVOQEbRMuo3JMYJcRL-683" vertex="1">
          <mxGeometry x="32.460000000000036" y="35.09000000000003" width="70" height="35" as="geometry" />
        </mxCell>
        <mxCell id="JcOVOQEbRMuo3JMYJcRL-237" value="" style="verticalLabelPosition=bottom;verticalAlign=top;html=1;shape=mxgraph.basic.half_circle;rotation=105;fillColor=light-dark(#FFFFFF,#FFFFFF);container=0;" parent="JcOVOQEbRMuo3JMYJcRL-683" vertex="1">
          <mxGeometry x="19.460000000000036" y="53.59000000000003" width="35" height="17.5" as="geometry" />
        </mxCell>
        <mxCell id="JcOVOQEbRMuo3JMYJcRL-238" value="" style="verticalLabelPosition=bottom;verticalAlign=top;html=1;shape=mxgraph.basic.half_circle;rotation=285;fillColor=light-dark(#990000,var(--ge-dark-color, #121212));container=0;" parent="JcOVOQEbRMuo3JMYJcRL-683" vertex="1">
          <mxGeometry x="45.960000000000036" y="25.090000000000032" width="35" height="17.5" as="geometry" />
        </mxCell>
        <mxCell id="JcOVOQEbRMuo3JMYJcRL-239" value="" style="strokeWidth=2;html=1;shape=mxgraph.flowchart.start_1;whiteSpace=wrap;strokeColor=light-dark(#990000,#FFFFFF);rotation=20;fillColor=light-dark(#990000,var(--ge-dark-color, #121212));container=0;" parent="JcOVOQEbRMuo3JMYJcRL-683" vertex="1">
          <mxGeometry x="43.960000000000036" y="15.090000000000032" width="20" height="32" as="geometry" />
        </mxCell>
        <mxCell id="JcOVOQEbRMuo3JMYJcRL-240" value="" style="strokeWidth=2;html=1;shape=mxgraph.flowchart.start_1;whiteSpace=wrap;strokeColor=light-dark(#FFFFFF,#FFFFFF);fillColor=light-dark(#FFFFFF,var(--ge-dark-color, #121212));rotation=15;container=0;" parent="JcOVOQEbRMuo3JMYJcRL-683" vertex="1">
          <mxGeometry x="35.460000000000036" y="49.09000000000003" width="20" height="32" as="geometry" />
        </mxCell>
        <mxCell id="JcOVOQEbRMuo3JMYJcRL-241" value="" style="ellipse;whiteSpace=wrap;html=1;aspect=fixed;fillColor=light-dark(#000000,#000000);container=0;" parent="JcOVOQEbRMuo3JMYJcRL-683" vertex="1">
          <mxGeometry x="45.960000000000036" y="60.09000000000003" width="10" height="10" as="geometry" />
        </mxCell>
        <mxCell id="JcOVOQEbRMuo3JMYJcRL-242" value="" style="ellipse;whiteSpace=wrap;html=1;aspect=fixed;fillColor=light-dark(#FFE804,#000000);strokeColor=light-dark(#FFE804,#000000);container=0;" parent="JcOVOQEbRMuo3JMYJcRL-683" vertex="1">
          <mxGeometry x="49.460000000000036" y="25.090000000000032" width="10" height="10" as="geometry" />
        </mxCell>
        <mxCell id="JcOVOQEbRMuo3JMYJcRL-695" value="" style="group" parent="1" vertex="1" connectable="0">
          <mxGeometry x="710" y="310" width="100" height="210" as="geometry" />
        </mxCell>
        <mxCell id="JcOVOQEbRMuo3JMYJcRL-635" value="" style="rounded=1;whiteSpace=wrap;html=1;fillColor=light-dark(#000000,var(--ge-dark-color, #121212));container=0;" parent="JcOVOQEbRMuo3JMYJcRL-695" vertex="1">
          <mxGeometry width="100" height="210" as="geometry" />
        </mxCell>
        <mxCell id="JcOVOQEbRMuo3JMYJcRL-636" value="" style="edgeStyle=none;rounded=0;orthogonalLoop=1;jettySize=auto;html=1;" parent="JcOVOQEbRMuo3JMYJcRL-695" edge="1">
          <mxGeometry relative="1" as="geometry">
            <mxPoint x="49" y="148" as="sourcePoint" />
            <mxPoint x="49.89247933786373" y="64.99942157868645" as="targetPoint" />
          </mxGeometry>
        </mxCell>
        <mxCell id="JcOVOQEbRMuo3JMYJcRL-643" value="" style="ellipse;whiteSpace=wrap;html=1;aspect=fixed;fillColor=light-dark(#990000,var(--ge-dark-color, #121212));container=0;" parent="JcOVOQEbRMuo3JMYJcRL-695" vertex="1">
          <mxGeometry x="15" y="10" width="70" height="70" as="geometry" />
        </mxCell>
        <mxCell id="JcOVOQEbRMuo3JMYJcRL-641" value="" style="ellipse;whiteSpace=wrap;html=1;aspect=fixed;fillColor=#FF99CC;movable=1;resizable=1;rotatable=1;deletable=1;editable=1;locked=0;connectable=1;container=0;" parent="JcOVOQEbRMuo3JMYJcRL-695" vertex="1">
          <mxGeometry x="60" y="160" width="30" height="30" as="geometry" />
        </mxCell>
        <mxCell id="JcOVOQEbRMuo3JMYJcRL-642" value="" style="ellipse;whiteSpace=wrap;html=1;aspect=fixed;fillColor=#FF99CC;movable=1;resizable=1;rotatable=1;deletable=1;editable=1;locked=0;connectable=1;container=0;" parent="JcOVOQEbRMuo3JMYJcRL-695" vertex="1">
          <mxGeometry x="10" y="160" width="30" height="30" as="geometry" />
        </mxCell>
        <mxCell id="JcOVOQEbRMuo3JMYJcRL-696" value="" style="group" parent="1" vertex="1" connectable="0">
          <mxGeometry x="560" y="310" width="100" height="210" as="geometry" />
        </mxCell>
        <mxCell id="JcOVOQEbRMuo3JMYJcRL-652" value="" style="rounded=1;whiteSpace=wrap;html=1;fillColor=light-dark(#000000,var(--ge-dark-color, #121212));container=0;" parent="JcOVOQEbRMuo3JMYJcRL-696" vertex="1">
          <mxGeometry width="100" height="210" as="geometry" />
        </mxCell>
        <mxCell id="JcOVOQEbRMuo3JMYJcRL-653" value="" style="whiteSpace=wrap;html=1;shape=mxgraph.basic.pointed_oval;flipH=1;flipV=1;direction=south;fillColor=light-dark(#990000,#000000);container=0;" parent="JcOVOQEbRMuo3JMYJcRL-696" vertex="1">
          <mxGeometry x="6.25" y="43" width="35" height="20" as="geometry" />
        </mxCell>
        <mxCell id="JcOVOQEbRMuo3JMYJcRL-654" value="" style="whiteSpace=wrap;html=1;shape=mxgraph.basic.pointed_oval;flipH=1;flipV=1;direction=south;fillColor=light-dark(#FFE804,#000000);container=0;" parent="JcOVOQEbRMuo3JMYJcRL-696" vertex="1">
          <mxGeometry x="58.75" y="43" width="35" height="20" as="geometry" />
        </mxCell>
        <mxCell id="JcOVOQEbRMuo3JMYJcRL-655" value="" style="whiteSpace=wrap;html=1;shape=mxgraph.basic.pointed_oval;flipH=1;flipV=1;direction=south;fillColor=light-dark(#990000,#000000);container=0;" parent="JcOVOQEbRMuo3JMYJcRL-696" vertex="1">
          <mxGeometry x="6.25" y="73" width="35" height="20" as="geometry" />
        </mxCell>
        <mxCell id="JcOVOQEbRMuo3JMYJcRL-656" value="" style="whiteSpace=wrap;html=1;shape=mxgraph.basic.pointed_oval;flipH=1;flipV=1;direction=south;fillColor=light-dark(#FFE804,#000000);container=0;" parent="JcOVOQEbRMuo3JMYJcRL-696" vertex="1">
          <mxGeometry x="58.75" y="73" width="35" height="20" as="geometry" />
        </mxCell>
        <mxCell id="JcOVOQEbRMuo3JMYJcRL-657" value="" style="whiteSpace=wrap;html=1;shape=mxgraph.basic.pointed_oval;flipH=1;flipV=1;direction=south;fillColor=light-dark(#FFE804,#000000);container=0;" parent="JcOVOQEbRMuo3JMYJcRL-696" vertex="1">
          <mxGeometry x="58.75" y="13" width="35" height="20" as="geometry" />
        </mxCell>
        <mxCell id="JcOVOQEbRMuo3JMYJcRL-658" value="" style="whiteSpace=wrap;html=1;shape=mxgraph.basic.pointed_oval;flipH=1;flipV=1;direction=south;fillColor=light-dark(#990000,#000000);container=0;" parent="JcOVOQEbRMuo3JMYJcRL-696" vertex="1">
          <mxGeometry x="6.25" y="13" width="35" height="20" as="geometry" />
        </mxCell>
        <mxCell id="JcOVOQEbRMuo3JMYJcRL-660" value="" style="whiteSpace=wrap;html=1;shape=mxgraph.basic.pointed_oval;flipH=1;flipV=1;direction=south;fillColor=light-dark(#FFE804,#000000);movable=1;resizable=1;rotatable=1;deletable=1;editable=1;locked=0;connectable=1;container=0;" parent="JcOVOQEbRMuo3JMYJcRL-696" vertex="1">
          <mxGeometry x="6.25" y="153" width="35" height="20" as="geometry" />
        </mxCell>
        <mxCell id="JcOVOQEbRMuo3JMYJcRL-661" value="" style="whiteSpace=wrap;html=1;shape=mxgraph.basic.pointed_oval;flipH=1;flipV=1;direction=south;fillColor=light-dark(#990000,#000000);movable=1;resizable=1;rotatable=1;deletable=1;editable=1;locked=0;connectable=1;container=0;" parent="JcOVOQEbRMuo3JMYJcRL-696" vertex="1">
          <mxGeometry x="58.75" y="153" width="35" height="20" as="geometry" />
        </mxCell>
        <mxCell id="JcOVOQEbRMuo3JMYJcRL-662" value="" style="whiteSpace=wrap;html=1;shape=mxgraph.basic.pointed_oval;flipH=1;flipV=1;direction=south;fillColor=light-dark(#FFE804,#000000);movable=1;resizable=1;rotatable=1;deletable=1;editable=1;locked=0;connectable=1;container=0;" parent="JcOVOQEbRMuo3JMYJcRL-696" vertex="1">
          <mxGeometry x="6.25" y="183" width="35" height="20" as="geometry" />
        </mxCell>
        <mxCell id="JcOVOQEbRMuo3JMYJcRL-663" value="" style="whiteSpace=wrap;html=1;shape=mxgraph.basic.pointed_oval;flipH=1;flipV=1;direction=south;fillColor=light-dark(#990000,#000000);movable=1;resizable=1;rotatable=1;deletable=1;editable=1;locked=0;connectable=1;container=0;" parent="JcOVOQEbRMuo3JMYJcRL-696" vertex="1">
          <mxGeometry x="58.75" y="183" width="35" height="20" as="geometry" />
        </mxCell>
        <mxCell id="JcOVOQEbRMuo3JMYJcRL-664" value="" style="whiteSpace=wrap;html=1;shape=mxgraph.basic.pointed_oval;flipH=1;flipV=1;direction=south;fillColor=light-dark(#990000,#000000);movable=1;resizable=1;rotatable=1;deletable=1;editable=1;locked=0;connectable=1;container=0;" parent="JcOVOQEbRMuo3JMYJcRL-696" vertex="1">
          <mxGeometry x="58.75" y="123" width="35" height="20" as="geometry" />
        </mxCell>
        <mxCell id="JcOVOQEbRMuo3JMYJcRL-665" value="" style="whiteSpace=wrap;html=1;shape=mxgraph.basic.pointed_oval;flipH=1;flipV=1;direction=south;fillColor=light-dark(#FFE804,#000000);movable=1;resizable=1;rotatable=1;deletable=1;editable=1;locked=0;connectable=1;container=0;" parent="JcOVOQEbRMuo3JMYJcRL-696" vertex="1">
          <mxGeometry x="6.25" y="123" width="35" height="20" as="geometry" />
        </mxCell>
        <mxCell id="JcOVOQEbRMuo3JMYJcRL-697" value="" style="group" parent="1" vertex="1" connectable="0">
          <mxGeometry x="380" y="310" width="100" height="210" as="geometry" />
        </mxCell>
        <mxCell id="JcOVOQEbRMuo3JMYJcRL-685" value="" style="rounded=1;whiteSpace=wrap;html=1;fillColor=light-dark(#000000,var(--ge-dark-color, #121212));container=0;" parent="JcOVOQEbRMuo3JMYJcRL-697" vertex="1">
          <mxGeometry width="100" height="210" as="geometry" />
        </mxCell>
        <mxCell id="JcOVOQEbRMuo3JMYJcRL-686" value="" style="edgeStyle=none;rounded=0;orthogonalLoop=1;jettySize=auto;html=1;" parent="JcOVOQEbRMuo3JMYJcRL-697" edge="1">
          <mxGeometry relative="1" as="geometry">
            <mxPoint x="49" y="148" as="sourcePoint" />
            <mxPoint x="49.89247933468164" y="64.9994218746142" as="targetPoint" />
          </mxGeometry>
        </mxCell>
        <mxCell id="JcOVOQEbRMuo3JMYJcRL-687" value="" style="ellipse;whiteSpace=wrap;html=1;aspect=fixed;fillColor=#990000;container=0;movable=1;resizable=1;rotatable=1;deletable=1;editable=1;locked=0;connectable=1;" parent="JcOVOQEbRMuo3JMYJcRL-697" vertex="1">
          <mxGeometry x="60" y="171" width="30" height="30" as="geometry" />
        </mxCell>
        <mxCell id="JcOVOQEbRMuo3JMYJcRL-688" value="" style="ellipse;whiteSpace=wrap;html=1;aspect=fixed;fillColor=#990000;container=0;movable=1;resizable=1;rotatable=1;deletable=1;editable=1;locked=0;connectable=1;" parent="JcOVOQEbRMuo3JMYJcRL-697" vertex="1">
          <mxGeometry x="10" y="171" width="30" height="30" as="geometry" />
        </mxCell>
        <mxCell id="JcOVOQEbRMuo3JMYJcRL-689" value="" style="ellipse;whiteSpace=wrap;html=1;aspect=fixed;fillColor=#990000;container=0;movable=1;resizable=1;rotatable=1;deletable=1;editable=1;locked=0;connectable=1;" parent="JcOVOQEbRMuo3JMYJcRL-697" vertex="1">
          <mxGeometry x="60" y="121" width="30" height="30" as="geometry" />
        </mxCell>
        <mxCell id="JcOVOQEbRMuo3JMYJcRL-690" value="" style="ellipse;whiteSpace=wrap;html=1;aspect=fixed;fillColor=#990000;container=0;movable=1;resizable=1;rotatable=1;deletable=1;editable=1;locked=0;connectable=1;" parent="JcOVOQEbRMuo3JMYJcRL-697" vertex="1">
          <mxGeometry x="10" y="121" width="30" height="30" as="geometry" />
        </mxCell>
        <mxCell id="JcOVOQEbRMuo3JMYJcRL-694" value="" style="ellipse;whiteSpace=wrap;html=1;aspect=fixed;fillColor=light-dark(#990000,var(--ge-dark-color, #121212));container=0;" parent="JcOVOQEbRMuo3JMYJcRL-697" vertex="1">
          <mxGeometry x="15" y="20" width="70" height="70" as="geometry" />
        </mxCell>
        <mxCell id="roaDSEXD4m8dNX4nTzZ7-1" value="" style="group" parent="1" vertex="1" connectable="0">
          <mxGeometry x="980" y="310" width="100" height="210" as="geometry" />
        </mxCell>
        <mxCell id="JcOVOQEbRMuo3JMYJcRL-547" value="" style="group" parent="roaDSEXD4m8dNX4nTzZ7-1" vertex="1" connectable="0">
          <mxGeometry width="100" height="210" as="geometry" />
        </mxCell>
        <mxCell id="JcOVOQEbRMuo3JMYJcRL-548" value="" style="rounded=1;whiteSpace=wrap;html=1;fillColor=light-dark(#000000,var(--ge-dark-color, #121212));container=0;" parent="JcOVOQEbRMuo3JMYJcRL-547" vertex="1">
          <mxGeometry width="100" height="210" as="geometry" />
        </mxCell>
        <mxCell id="JcOVOQEbRMuo3JMYJcRL-549" value="" style="edgeStyle=none;rounded=0;orthogonalLoop=1;jettySize=auto;html=1;" parent="JcOVOQEbRMuo3JMYJcRL-547" edge="1">
          <mxGeometry relative="1" as="geometry">
            <mxPoint x="49" y="148" as="sourcePoint" />
            <mxPoint x="49.89247933786373" y="64.99942157868645" as="targetPoint" />
          </mxGeometry>
        </mxCell>
        <mxCell id="JcOVOQEbRMuo3JMYJcRL-550" value="" style="group" parent="JcOVOQEbRMuo3JMYJcRL-547" vertex="1" connectable="0">
          <mxGeometry x="5" y="110" width="90" height="90" as="geometry" />
        </mxCell>
        <mxCell id="JcOVOQEbRMuo3JMYJcRL-551" value="" style="ellipse;whiteSpace=wrap;html=1;aspect=fixed;fillColor=#FFFFFF;container=0;" parent="JcOVOQEbRMuo3JMYJcRL-550" vertex="1">
          <mxGeometry x="60" y="60" width="30" height="30" as="geometry" />
        </mxCell>
        <mxCell id="JcOVOQEbRMuo3JMYJcRL-552" value="" style="ellipse;whiteSpace=wrap;html=1;aspect=fixed;fillColor=#FFFFFF;container=0;" parent="JcOVOQEbRMuo3JMYJcRL-550" vertex="1">
          <mxGeometry width="30" height="30" as="geometry" />
        </mxCell>
        <mxCell id="JcOVOQEbRMuo3JMYJcRL-553" value="" style="ellipse;whiteSpace=wrap;html=1;aspect=fixed;fillColor=#FFFFFF;container=0;" parent="JcOVOQEbRMuo3JMYJcRL-550" vertex="1">
          <mxGeometry x="30" y="30" width="30" height="30" as="geometry" />
        </mxCell>
        <mxCell id="JcOVOQEbRMuo3JMYJcRL-592" value="" style="group" parent="roaDSEXD4m8dNX4nTzZ7-1" vertex="1" connectable="0">
          <mxGeometry x="9" y="11" width="80" height="80" as="geometry" />
        </mxCell>
        <mxCell id="JcOVOQEbRMuo3JMYJcRL-588" value="" style="ellipse;whiteSpace=wrap;html=1;aspect=fixed;fillColor=#990000;container=0;" parent="JcOVOQEbRMuo3JMYJcRL-592" vertex="1">
          <mxGeometry x="50" y="50" width="30" height="30" as="geometry" />
        </mxCell>
        <mxCell id="JcOVOQEbRMuo3JMYJcRL-589" value="" style="ellipse;whiteSpace=wrap;html=1;aspect=fixed;fillColor=#990000;container=0;" parent="JcOVOQEbRMuo3JMYJcRL-592" vertex="1">
          <mxGeometry y="50" width="30" height="30" as="geometry" />
        </mxCell>
        <mxCell id="JcOVOQEbRMuo3JMYJcRL-590" value="" style="ellipse;whiteSpace=wrap;html=1;aspect=fixed;fillColor=#990000;container=0;" parent="JcOVOQEbRMuo3JMYJcRL-592" vertex="1">
          <mxGeometry x="50" width="30" height="30" as="geometry" />
        </mxCell>
        <mxCell id="JcOVOQEbRMuo3JMYJcRL-591" value="" style="ellipse;whiteSpace=wrap;html=1;aspect=fixed;fillColor=#990000;container=0;" parent="JcOVOQEbRMuo3JMYJcRL-592" vertex="1">
          <mxGeometry width="30" height="30" as="geometry" />
        </mxCell>
        <mxCell id="roaDSEXD4m8dNX4nTzZ7-10" value="" style="group" parent="1" vertex="1" connectable="0">
          <mxGeometry x="1059.5" y="570" width="100" height="210" as="geometry" />
        </mxCell>
        <mxCell id="roaDSEXD4m8dNX4nTzZ7-5" value="" style="rounded=1;whiteSpace=wrap;html=1;fillColor=light-dark(#000000,var(--ge-dark-color, #121212));container=0;" parent="roaDSEXD4m8dNX4nTzZ7-10" vertex="1">
          <mxGeometry width="100" height="210" as="geometry" />
        </mxCell>
        <mxCell id="JcOVOQEbRMuo3JMYJcRL-371" value="" style="ellipse;whiteSpace=wrap;html=1;aspect=fixed;fillColor=#006600;container=0;" parent="roaDSEXD4m8dNX4nTzZ7-10" vertex="1">
          <mxGeometry x="60.5" y="65" width="30" height="30" as="geometry" />
        </mxCell>
        <mxCell id="JcOVOQEbRMuo3JMYJcRL-372" value="" style="ellipse;whiteSpace=wrap;html=1;aspect=fixed;fillColor=#006600;container=0;" parent="roaDSEXD4m8dNX4nTzZ7-10" vertex="1">
          <mxGeometry x="10.5" y="65" width="30" height="30" as="geometry" />
        </mxCell>
        <mxCell id="JcOVOQEbRMuo3JMYJcRL-373" value="" style="ellipse;whiteSpace=wrap;html=1;aspect=fixed;fillColor=#006600;container=0;" parent="roaDSEXD4m8dNX4nTzZ7-10" vertex="1">
          <mxGeometry x="60.5" y="15" width="30" height="30" as="geometry" />
        </mxCell>
        <mxCell id="JcOVOQEbRMuo3JMYJcRL-374" value="" style="ellipse;whiteSpace=wrap;html=1;aspect=fixed;fillColor=#006600;container=0;" parent="roaDSEXD4m8dNX4nTzZ7-10" vertex="1">
          <mxGeometry x="10.5" y="15" width="30" height="30" as="geometry" />
        </mxCell>
        <mxCell id="JcOVOQEbRMuo3JMYJcRL-375" value="" style="ellipse;whiteSpace=wrap;html=1;aspect=fixed;fillColor=#FF99CC;container=0;" parent="roaDSEXD4m8dNX4nTzZ7-10" vertex="1">
          <mxGeometry x="40.5" y="45" width="20" height="20" as="geometry" />
        </mxCell>
        <mxCell id="JcOVOQEbRMuo3JMYJcRL-44" value="" style="whiteSpace=wrap;html=1;shape=mxgraph.basic.pointed_oval;flipH=1;flipV=1;direction=south;fillColor=light-dark(#FFE804,#000000);container=0;" parent="roaDSEXD4m8dNX4nTzZ7-10" vertex="1">
          <mxGeometry x="7" y="153" width="35" height="20" as="geometry" />
        </mxCell>
        <mxCell id="JcOVOQEbRMuo3JMYJcRL-45" value="" style="whiteSpace=wrap;html=1;shape=mxgraph.basic.pointed_oval;flipH=1;flipV=1;direction=south;fillColor=light-dark(#FFE804,#000000);container=0;" parent="roaDSEXD4m8dNX4nTzZ7-10" vertex="1">
          <mxGeometry x="59.5" y="153" width="35" height="20" as="geometry" />
        </mxCell>
        <mxCell id="JcOVOQEbRMuo3JMYJcRL-46" value="" style="whiteSpace=wrap;html=1;shape=mxgraph.basic.pointed_oval;flipH=1;flipV=1;direction=south;fillColor=light-dark(#FFE804,#000000);container=0;" parent="roaDSEXD4m8dNX4nTzZ7-10" vertex="1">
          <mxGeometry x="7" y="183" width="35" height="20" as="geometry" />
        </mxCell>
        <mxCell id="JcOVOQEbRMuo3JMYJcRL-47" value="" style="whiteSpace=wrap;html=1;shape=mxgraph.basic.pointed_oval;flipH=1;flipV=1;direction=south;fillColor=light-dark(#FFE804,#000000);container=0;" parent="roaDSEXD4m8dNX4nTzZ7-10" vertex="1">
          <mxGeometry x="59.5" y="183" width="35" height="20" as="geometry" />
        </mxCell>
        <mxCell id="JcOVOQEbRMuo3JMYJcRL-48" value="" style="whiteSpace=wrap;html=1;shape=mxgraph.basic.pointed_oval;flipH=1;flipV=1;direction=south;fillColor=light-dark(#FFE804,#000000);container=0;" parent="roaDSEXD4m8dNX4nTzZ7-10" vertex="1">
          <mxGeometry x="59.5" y="123" width="35" height="20" as="geometry" />
        </mxCell>
        <mxCell id="JcOVOQEbRMuo3JMYJcRL-49" value="" style="whiteSpace=wrap;html=1;shape=mxgraph.basic.pointed_oval;flipH=1;flipV=1;direction=south;fillColor=light-dark(#FFE804,#000000);container=0;" parent="roaDSEXD4m8dNX4nTzZ7-10" vertex="1">
          <mxGeometry x="7" y="123" width="35" height="20" as="geometry" />
        </mxCell>
        <mxCell id="roaDSEXD4m8dNX4nTzZ7-11" value="" style="group" parent="1" vertex="1" connectable="0">
          <mxGeometry x="890" y="569" width="100" height="210" as="geometry" />
        </mxCell>
        <mxCell id="JcOVOQEbRMuo3JMYJcRL-343" value="" style="rounded=1;whiteSpace=wrap;html=1;fillColor=light-dark(#000000,var(--ge-dark-color, #121212));container=0;" parent="roaDSEXD4m8dNX4nTzZ7-11" vertex="1">
          <mxGeometry width="100" height="210" as="geometry" />
        </mxCell>
        <mxCell id="JcOVOQEbRMuo3JMYJcRL-344" value="" style="edgeStyle=none;rounded=0;orthogonalLoop=1;jettySize=auto;html=1;" parent="roaDSEXD4m8dNX4nTzZ7-11" target="JcOVOQEbRMuo3JMYJcRL-349" edge="1">
          <mxGeometry relative="1" as="geometry">
            <mxPoint x="49" y="148" as="sourcePoint" />
          </mxGeometry>
        </mxCell>
        <mxCell id="JcOVOQEbRMuo3JMYJcRL-345" value="" style="ellipse;whiteSpace=wrap;html=1;aspect=fixed;fillColor=#006600;container=0;" parent="roaDSEXD4m8dNX4nTzZ7-11" vertex="1">
          <mxGeometry x="60" y="65" width="30" height="30" as="geometry" />
        </mxCell>
        <mxCell id="JcOVOQEbRMuo3JMYJcRL-346" value="" style="ellipse;whiteSpace=wrap;html=1;aspect=fixed;fillColor=#006600;container=0;" parent="roaDSEXD4m8dNX4nTzZ7-11" vertex="1">
          <mxGeometry x="10" y="65" width="30" height="30" as="geometry" />
        </mxCell>
        <mxCell id="JcOVOQEbRMuo3JMYJcRL-347" value="" style="ellipse;whiteSpace=wrap;html=1;aspect=fixed;fillColor=#006600;container=0;" parent="roaDSEXD4m8dNX4nTzZ7-11" vertex="1">
          <mxGeometry x="60" y="15" width="30" height="30" as="geometry" />
        </mxCell>
        <mxCell id="JcOVOQEbRMuo3JMYJcRL-348" value="" style="ellipse;whiteSpace=wrap;html=1;aspect=fixed;fillColor=#006600;container=0;" parent="roaDSEXD4m8dNX4nTzZ7-11" vertex="1">
          <mxGeometry x="10" y="15" width="30" height="30" as="geometry" />
        </mxCell>
        <mxCell id="JcOVOQEbRMuo3JMYJcRL-349" value="" style="ellipse;whiteSpace=wrap;html=1;aspect=fixed;fillColor=#FF99CC;container=0;" parent="roaDSEXD4m8dNX4nTzZ7-11" vertex="1">
          <mxGeometry x="40" y="45" width="20" height="20" as="geometry" />
        </mxCell>
        <mxCell id="JcOVOQEbRMuo3JMYJcRL-361" value="" style="ellipse;whiteSpace=wrap;html=1;aspect=fixed;fillColor=#990000;container=0;movable=1;resizable=1;rotatable=1;deletable=1;editable=1;locked=0;connectable=1;" parent="roaDSEXD4m8dNX4nTzZ7-11" vertex="1">
          <mxGeometry x="60" y="171" width="30" height="30" as="geometry" />
        </mxCell>
        <mxCell id="JcOVOQEbRMuo3JMYJcRL-362" value="" style="ellipse;whiteSpace=wrap;html=1;aspect=fixed;fillColor=#990000;container=0;movable=1;resizable=1;rotatable=1;deletable=1;editable=1;locked=0;connectable=1;" parent="roaDSEXD4m8dNX4nTzZ7-11" vertex="1">
          <mxGeometry x="10" y="171" width="30" height="30" as="geometry" />
        </mxCell>
        <mxCell id="JcOVOQEbRMuo3JMYJcRL-363" value="" style="ellipse;whiteSpace=wrap;html=1;aspect=fixed;fillColor=#990000;container=0;movable=1;resizable=1;rotatable=1;deletable=1;editable=1;locked=0;connectable=1;" parent="roaDSEXD4m8dNX4nTzZ7-11" vertex="1">
          <mxGeometry x="60" y="121" width="30" height="30" as="geometry" />
        </mxCell>
        <mxCell id="JcOVOQEbRMuo3JMYJcRL-364" value="" style="ellipse;whiteSpace=wrap;html=1;aspect=fixed;fillColor=#990000;container=0;movable=1;resizable=1;rotatable=1;deletable=1;editable=1;locked=0;connectable=1;" parent="roaDSEXD4m8dNX4nTzZ7-11" vertex="1">
          <mxGeometry x="10" y="121" width="30" height="30" as="geometry" />
        </mxCell>
        <mxCell id="fOmsuz451dCNXXCT-U1H-2" value="" style="group" vertex="1" connectable="0" parent="1">
          <mxGeometry x="900" y="860" width="100" height="210" as="geometry" />
        </mxCell>
        <mxCell id="fOmsuz451dCNXXCT-U1H-3" value="" style="group" vertex="1" connectable="0" parent="fOmsuz451dCNXXCT-U1H-2">
          <mxGeometry width="100" height="210" as="geometry" />
        </mxCell>
        <mxCell id="fOmsuz451dCNXXCT-U1H-4" value="" style="rounded=1;whiteSpace=wrap;html=1;fillColor=light-dark(#000000,var(--ge-dark-color, #121212));container=0;" vertex="1" parent="fOmsuz451dCNXXCT-U1H-3">
          <mxGeometry width="100" height="210" as="geometry" />
        </mxCell>
        <mxCell id="fOmsuz451dCNXXCT-U1H-5" value="" style="edgeStyle=none;rounded=0;orthogonalLoop=1;jettySize=auto;html=1;" edge="1" parent="fOmsuz451dCNXXCT-U1H-3">
          <mxGeometry relative="1" as="geometry">
            <mxPoint x="49" y="148" as="sourcePoint" />
            <mxPoint x="49.925375214196265" y="64.9997212976491" as="targetPoint" />
          </mxGeometry>
        </mxCell>
        <mxCell id="fOmsuz451dCNXXCT-U1H-6" value="" style="ellipse;whiteSpace=wrap;html=1;aspect=fixed;fillColor=#FF99CC;movable=1;resizable=1;rotatable=1;deletable=1;editable=1;locked=0;connectable=1;container=0;" vertex="1" parent="fOmsuz451dCNXXCT-U1H-2">
          <mxGeometry x="60" y="18" width="30" height="30" as="geometry" />
        </mxCell>
        <mxCell id="fOmsuz451dCNXXCT-U1H-7" value="" style="ellipse;whiteSpace=wrap;html=1;aspect=fixed;fillColor=#FF99CC;movable=1;resizable=1;rotatable=1;deletable=1;editable=1;locked=0;connectable=1;container=0;" vertex="1" parent="fOmsuz451dCNXXCT-U1H-2">
          <mxGeometry x="10" y="18" width="30" height="30" as="geometry" />
        </mxCell>
        <mxCell id="fOmsuz451dCNXXCT-U1H-8" value="" style="whiteSpace=wrap;html=1;shape=mxgraph.basic.pointed_oval;flipH=1;flipV=1;direction=south;fillColor=light-dark(#FFE804,#000000);container=0;" vertex="1" parent="fOmsuz451dCNXXCT-U1H-2">
          <mxGeometry x="6.5" y="153" width="35" height="20" as="geometry" />
        </mxCell>
        <mxCell id="fOmsuz451dCNXXCT-U1H-9" value="" style="whiteSpace=wrap;html=1;shape=mxgraph.basic.pointed_oval;flipH=1;flipV=1;direction=south;fillColor=light-dark(#FFE804,#000000);container=0;" vertex="1" parent="fOmsuz451dCNXXCT-U1H-2">
          <mxGeometry x="59" y="153" width="35" height="20" as="geometry" />
        </mxCell>
        <mxCell id="fOmsuz451dCNXXCT-U1H-10" value="" style="whiteSpace=wrap;html=1;shape=mxgraph.basic.pointed_oval;flipH=1;flipV=1;direction=south;fillColor=light-dark(#FFE804,#000000);container=0;" vertex="1" parent="fOmsuz451dCNXXCT-U1H-2">
          <mxGeometry x="6.5" y="183" width="35" height="20" as="geometry" />
        </mxCell>
        <mxCell id="fOmsuz451dCNXXCT-U1H-11" value="" style="whiteSpace=wrap;html=1;shape=mxgraph.basic.pointed_oval;flipH=1;flipV=1;direction=south;fillColor=light-dark(#FFE804,#000000);container=0;" vertex="1" parent="fOmsuz451dCNXXCT-U1H-2">
          <mxGeometry x="59" y="183" width="35" height="20" as="geometry" />
        </mxCell>
        <mxCell id="fOmsuz451dCNXXCT-U1H-12" value="" style="whiteSpace=wrap;html=1;shape=mxgraph.basic.pointed_oval;flipH=1;flipV=1;direction=south;fillColor=light-dark(#FFE804,#000000);container=0;" vertex="1" parent="fOmsuz451dCNXXCT-U1H-2">
          <mxGeometry x="59" y="123" width="35" height="20" as="geometry" />
        </mxCell>
        <mxCell id="fOmsuz451dCNXXCT-U1H-13" value="" style="whiteSpace=wrap;html=1;shape=mxgraph.basic.pointed_oval;flipH=1;flipV=1;direction=south;fillColor=light-dark(#FFE804,#000000);container=0;" vertex="1" parent="fOmsuz451dCNXXCT-U1H-2">
          <mxGeometry x="6.5" y="123" width="35" height="20" as="geometry" />
        </mxCell>
      </root>
    </mxGraphModel>
  </diagram>
</mxfile>
